  0
SECTION
  2
HEADER
  9
$ANGBASE
  50
0.0
  9
$ANGDIR
  70
1
  9
$MEASUREMENT
  70
1
  0
ENDSEC
  0
SECTION
  2
TABLES
  0
TABLE
  2
LTYPE
  70
4
  0
LTYPE
  5
40F
  2
CONTINUOUS
  70
0
  3
Solid line
  72
65
  73
0
  40
0.0
  0
LTYPE
  5
410
  2
DASHDOT
 70
0
  3
Dash Dot ____ _ ____ _
 72
65
 73
4
 40
2.0
 49
1.25
 49
-0.25
 49
0.25
 49
-0.25
  0
LTYPE
  5
411
  2
DASHED
 70
0
  3
Dashed __ __ __ __ __
 72
65
 73
2
 40
0.75
 49
0.5
 49
-0.25
  0
LTYPE
  5
43B
  2
DOTTED
 70
0
  3
Dotted .  .  .  .
 72
65
 73
2
 40
0.2
 49
0.0
 49
-0.2
  0
ENDTAB
  0
TABLE
  2
STYLE
  70
4
  0
STYLE
  2
KICAD
  70
0
  40
0
  41
1
  42
1
  50
0
  71
0
  3
isocp.shx
  0
STYLE
  2
KICADB
  70
0
  40
0
  41
1
  42
1
  50
0
  71
0
  3
isocp.shx
  0
STYLE
  2
KICADI
  70
0
  40
0
  41
1
  42
1
  50
15
  71
0
  3
isocp.shx
  0
STYLE
  2
KICADBI
  70
0
  40
0
  41
1
  42
1
  50
15
  71
0
  3
isocp.shx
  0
ENDTAB
  0
TABLE
  2
LAYER
  70
1
  0
LAYER
  2
BLACK
  70
0
  62
7
  6
CONTINUOUS
  0
ENDTAB
  0
ENDSEC
  0
SECTION
  2
ENTITIES
0
LINE
8
BLACK
6
CONTINUOUS
10
151.832
20
-41.576
11
151.832
21
-44.276
0
LINE
8
BLACK
6
CONTINUOUS
10
151.832
20
-44.276
11
157.032
21
-44.276
0
LINE
8
BLACK
6
CONTINUOUS
10
157.032
20
-44.276
11
157.032
21
-41.576
0
LINE
8
BLACK
6
CONTINUOUS
10
157.032
20
-41.576
11
151.832
21
-41.576
0
LINE
8
BLACK
6
CONTINUOUS
10
150.622
20
-42.926
11
151.832
21
-42.926
0
LINE
8
BLACK
6
CONTINUOUS
10
158.242
20
-42.926
11
157.032
21
-42.926
0
LINE
8
BLACK
6
CONTINUOUS
10
152.612
20
-41.576
11
152.612
21
-44.276
0
LINE
8
BLACK
6
CONTINUOUS
10
152.712
20
-41.576
11
152.712
21
-44.276
0
LINE
8
BLACK
6
CONTINUOUS
10
152.512
20
-41.576
11
152.512
21
-44.276
0
LINE
8
BLACK
6
CONTINUOUS
10
151.832
20
-38.02
11
151.832
21
-40.72
0
LINE
8
BLACK
6
CONTINUOUS
10
151.832
20
-40.72
11
157.032
21
-40.72
0
LINE
8
BLACK
6
CONTINUOUS
10
157.032
20
-40.72
11
157.032
21
-38.02
0
LINE
8
BLACK
6
CONTINUOUS
10
157.032
20
-38.02
11
151.832
21
-38.02
0
LINE
8
BLACK
6
CONTINUOUS
10
150.622
20
-39.37
11
151.832
21
-39.37
0
LINE
8
BLACK
6
CONTINUOUS
10
158.242
20
-39.37
11
157.032
21
-39.37
0
LINE
8
BLACK
6
CONTINUOUS
10
152.612
20
-38.02
11
152.612
21
-40.72
0
LINE
8
BLACK
6
CONTINUOUS
10
152.712
20
-38.02
11
152.712
21
-40.72
0
LINE
8
BLACK
6
CONTINUOUS
10
152.512
20
-38.02
11
152.512
21
-40.72
0
LINE
8
BLACK
6
CONTINUOUS
10
124.825
20
-42.164
11
130.175
21
-42.164
0
LINE
8
BLACK
6
CONTINUOUS
10
130.175
20
-42.164
11
130.175
21
-77.724
0
LINE
8
BLACK
6
CONTINUOUS
10
130.175
20
-77.724
11
123.825
21
-77.724
0
LINE
8
BLACK
6
CONTINUOUS
10
123.825
20
-77.724
11
123.825
21
-43.164
0
LINE
8
BLACK
6
CONTINUOUS
10
123.825
20
-43.164
11
124.825
21
-42.164
0
LINE
8
BLACK
6
CONTINUOUS
10
104.152
20
-64.568
11
104.152
21
-61.568
0
LINE
8
BLACK
6
CONTINUOUS
10
104.152
20
-61.568
11
110.152
21
-61.568
0
LINE
8
BLACK
6
CONTINUOUS
10
110.152
20
-61.568
11
110.152
21
-67.568
0
LINE
8
BLACK
6
CONTINUOUS
10
110.152
20
-67.568
11
104.152
21
-67.568
0
LINE
8
BLACK
6
CONTINUOUS
10
104.152
20
-67.568
11
104.152
21
-64.568
0
CIRCLE
8
BLACK
10
107.152
20
-64.568
40
2.01556
0
LINE
8
BLACK
6
CONTINUOUS
10
106.79
20
-38.066
11
107.315
21
-38.591
0
LINE
8
BLACK
6
CONTINUOUS
10
104.775
20
-38.066
11
106.79
21
-38.066
0
LINE
8
BLACK
6
CONTINUOUS
10
104.775
20
-40.166
11
104.775
21
-38.066
0
LINE
8
BLACK
6
CONTINUOUS
10
107.315
20
-40.166
11
104.775
21
-40.166
0
LINE
8
BLACK
6
CONTINUOUS
10
107.315
20
-38.591
11
107.315
21
-40.166
0
LINE
8
BLACK
6
CONTINUOUS
10
113.902
20
-38.066
11
114.427
21
-38.591
0
LINE
8
BLACK
6
CONTINUOUS
10
111.887
20
-38.066
11
113.902
21
-38.066
0
LINE
8
BLACK
6
CONTINUOUS
10
111.887
20
-40.166
11
111.887
21
-38.066
0
LINE
8
BLACK
6
CONTINUOUS
10
114.427
20
-40.166
11
111.887
21
-40.166
0
LINE
8
BLACK
6
CONTINUOUS
10
114.427
20
-38.591
11
114.427
21
-40.166
0
LINE
8
BLACK
6
CONTINUOUS
10
112.026
20
-64.568
11
112.026
21
-61.568
0
LINE
8
BLACK
6
CONTINUOUS
10
112.026
20
-61.568
11
118.026
21
-61.568
0
LINE
8
BLACK
6
CONTINUOUS
10
118.026
20
-61.568
11
118.026
21
-67.568
0
LINE
8
BLACK
6
CONTINUOUS
10
118.026
20
-67.568
11
112.026
21
-67.568
0
LINE
8
BLACK
6
CONTINUOUS
10
112.026
20
-67.568
11
112.026
21
-64.568
0
CIRCLE
8
BLACK
10
115.026
20
-64.568
40
2.01556
0
LINE
8
BLACK
6
CONTINUOUS
10
122
20
-93.806
11
132
21
-93.806
0
LINE
8
BLACK
6
CONTINUOUS
10
132
20
-93.806
11
132
21
-103.806
0
LINE
8
BLACK
6
CONTINUOUS
10
132
20
-103.806
11
122
21
-103.806
0
LINE
8
BLACK
6
CONTINUOUS
10
122
20
-103.806
11
122
21
-93.806
0
LINE
8
BLACK
6
CONTINUOUS
10
130.215
20
-84.113
11
123.965
21
-84.113
0
LINE
8
BLACK
6
CONTINUOUS
10
130.215
20
-79.463
11
123.965
21
-79.463
0
LINE
8
BLACK
6
CONTINUOUS
10
130.09
20
-83.788
11
124.09
21
-83.788
0
LINE
8
BLACK
6
CONTINUOUS
10
130.09
20
-79.788
11
124.09
21
-79.788
0
ARC
8
BLACK
10
124.09
20
-81.788
40
2
50
-270
51
-90
0
ARC
8
BLACK
10
130.09
20
-81.788
40
2
50
-90
51
90
0
ARC
8
BLACK
10
123.965
20
-81.788
40
2.325
50
-270
51
-90
0
ARC
8
BLACK
10
130.215
20
-81.788
40
2.325
50
-90
51
90
0
LINE
8
BLACK
6
CONTINUOUS
10
167.398
20
-76.91
11
167.398
21
-73.91
0
LINE
8
BLACK
6
CONTINUOUS
10
167.398
20
-73.91
11
173.398
21
-73.91
0
LINE
8
BLACK
6
CONTINUOUS
10
173.398
20
-73.91
11
173.398
21
-79.91
0
LINE
8
BLACK
6
CONTINUOUS
10
173.398
20
-79.91
11
167.398
21
-79.91
0
LINE
8
BLACK
6
CONTINUOUS
10
167.398
20
-79.91
11
167.398
21
-76.91
0
CIRCLE
8
BLACK
10
170.398
20
-76.91
40
2.01556
0
LINE
8
BLACK
6
CONTINUOUS
10
167.398
20
-64.568
11
167.398
21
-61.568
0
LINE
8
BLACK
6
CONTINUOUS
10
167.398
20
-61.568
11
173.398
21
-61.568
0
LINE
8
BLACK
6
CONTINUOUS
10
173.398
20
-61.568
11
173.398
21
-67.568
0
LINE
8
BLACK
6
CONTINUOUS
10
173.398
20
-67.568
11
167.398
21
-67.568
0
LINE
8
BLACK
6
CONTINUOUS
10
167.398
20
-67.568
11
167.398
21
-64.568
0
CIRCLE
8
BLACK
10
170.398
20
-64.568
40
2.01556
0
LINE
8
BLACK
6
CONTINUOUS
10
167.398
20
-52.122
11
167.398
21
-49.122
0
LINE
8
BLACK
6
CONTINUOUS
10
167.398
20
-49.122
11
173.398
21
-49.122
0
LINE
8
BLACK
6
CONTINUOUS
10
173.398
20
-49.122
11
173.398
21
-55.122
0
LINE
8
BLACK
6
CONTINUOUS
10
173.398
20
-55.122
11
167.398
21
-55.122
0
LINE
8
BLACK
6
CONTINUOUS
10
167.398
20
-55.122
11
167.398
21
-52.122
0
CIRCLE
8
BLACK
10
170.398
20
-52.122
40
2.01556
0
LINE
8
BLACK
6
CONTINUOUS
10
159.524
20
-76.91
11
159.524
21
-73.91
0
LINE
8
BLACK
6
CONTINUOUS
10
159.524
20
-73.91
11
165.524
21
-73.91
0
LINE
8
BLACK
6
CONTINUOUS
10
165.524
20
-73.91
11
165.524
21
-79.91
0
LINE
8
BLACK
6
CONTINUOUS
10
165.524
20
-79.91
11
159.524
21
-79.91
0
LINE
8
BLACK
6
CONTINUOUS
10
159.524
20
-79.91
11
159.524
21
-76.91
0
CIRCLE
8
BLACK
10
162.524
20
-76.91
40
2.01556
0
LINE
8
BLACK
6
CONTINUOUS
10
159.596
20
-64.568
11
159.596
21
-61.568
0
LINE
8
BLACK
6
CONTINUOUS
10
159.596
20
-61.568
11
165.596
21
-61.568
0
LINE
8
BLACK
6
CONTINUOUS
10
165.596
20
-61.568
11
165.596
21
-67.568
0
LINE
8
BLACK
6
CONTINUOUS
10
165.596
20
-67.568
11
159.596
21
-67.568
0
LINE
8
BLACK
6
CONTINUOUS
10
159.596
20
-67.568
11
159.596
21
-64.568
0
CIRCLE
8
BLACK
10
162.596
20
-64.568
40
2.01556
0
LINE
8
BLACK
6
CONTINUOUS
10
159.524
20
-52.122
11
159.524
21
-49.122
0
LINE
8
BLACK
6
CONTINUOUS
10
159.524
20
-49.122
11
165.524
21
-49.122
0
LINE
8
BLACK
6
CONTINUOUS
10
165.524
20
-49.122
11
165.524
21
-55.122
0
LINE
8
BLACK
6
CONTINUOUS
10
165.524
20
-55.122
11
159.524
21
-55.122
0
LINE
8
BLACK
6
CONTINUOUS
10
159.524
20
-55.122
11
159.524
21
-52.122
0
CIRCLE
8
BLACK
10
162.524
20
-52.122
40
2.01556
0
LINE
8
BLACK
6
CONTINUOUS
10
151.65
20
-89.206
11
151.65
21
-86.206
0
LINE
8
BLACK
6
CONTINUOUS
10
151.65
20
-86.206
11
157.65
21
-86.206
0
LINE
8
BLACK
6
CONTINUOUS
10
157.65
20
-86.206
11
157.65
21
-92.206
0
LINE
8
BLACK
6
CONTINUOUS
10
157.65
20
-92.206
11
151.65
21
-92.206
0
LINE
8
BLACK
6
CONTINUOUS
10
151.65
20
-92.206
11
151.65
21
-89.206
0
CIRCLE
8
BLACK
10
154.65
20
-89.206
40
2.01556
0
LINE
8
BLACK
6
CONTINUOUS
10
151.65
20
-76.91
11
151.65
21
-73.91
0
LINE
8
BLACK
6
CONTINUOUS
10
151.65
20
-73.91
11
157.65
21
-73.91
0
LINE
8
BLACK
6
CONTINUOUS
10
157.65
20
-73.91
11
157.65
21
-79.91
0
LINE
8
BLACK
6
CONTINUOUS
10
157.65
20
-79.91
11
151.65
21
-79.91
0
LINE
8
BLACK
6
CONTINUOUS
10
151.65
20
-79.91
11
151.65
21
-76.91
0
CIRCLE
8
BLACK
10
154.65
20
-76.91
40
2.01556
0
LINE
8
BLACK
6
CONTINUOUS
10
151.722
20
-64.568
11
151.722
21
-61.568
0
LINE
8
BLACK
6
CONTINUOUS
10
151.722
20
-61.568
11
157.722
21
-61.568
0
LINE
8
BLACK
6
CONTINUOUS
10
157.722
20
-61.568
11
157.722
21
-67.568
0
LINE
8
BLACK
6
CONTINUOUS
10
157.722
20
-67.568
11
151.722
21
-67.568
0
LINE
8
BLACK
6
CONTINUOUS
10
151.722
20
-67.568
11
151.722
21
-64.568
0
CIRCLE
8
BLACK
10
154.722
20
-64.568
40
2.01556
0
LINE
8
BLACK
6
CONTINUOUS
10
151.65
20
-52.122
11
151.65
21
-49.122
0
LINE
8
BLACK
6
CONTINUOUS
10
151.65
20
-49.122
11
157.65
21
-49.122
0
LINE
8
BLACK
6
CONTINUOUS
10
157.65
20
-49.122
11
157.65
21
-55.122
0
LINE
8
BLACK
6
CONTINUOUS
10
157.65
20
-55.122
11
151.65
21
-55.122
0
LINE
8
BLACK
6
CONTINUOUS
10
151.65
20
-55.122
11
151.65
21
-52.122
0
CIRCLE
8
BLACK
10
154.65
20
-52.122
40
2.01556
0
LINE
8
BLACK
6
CONTINUOUS
10
143.776
20
-89.206
11
143.776
21
-86.206
0
LINE
8
BLACK
6
CONTINUOUS
10
143.776
20
-86.206
11
149.776
21
-86.206
0
LINE
8
BLACK
6
CONTINUOUS
10
149.776
20
-86.206
11
149.776
21
-92.206
0
LINE
8
BLACK
6
CONTINUOUS
10
149.776
20
-92.206
11
143.776
21
-92.206
0
LINE
8
BLACK
6
CONTINUOUS
10
143.776
20
-92.206
11
143.776
21
-89.206
0
CIRCLE
8
BLACK
10
146.776
20
-89.206
40
2.01556
0
LINE
8
BLACK
6
CONTINUOUS
10
143.776
20
-76.91
11
143.776
21
-73.91
0
LINE
8
BLACK
6
CONTINUOUS
10
143.776
20
-73.91
11
149.776
21
-73.91
0
LINE
8
BLACK
6
CONTINUOUS
10
149.776
20
-73.91
11
149.776
21
-79.91
0
LINE
8
BLACK
6
CONTINUOUS
10
149.776
20
-79.91
11
143.776
21
-79.91
0
LINE
8
BLACK
6
CONTINUOUS
10
143.776
20
-79.91
11
143.776
21
-76.91
0
CIRCLE
8
BLACK
10
146.776
20
-76.91
40
2.01556
0
LINE
8
BLACK
6
CONTINUOUS
10
143.776
20
-64.568
11
143.776
21
-61.568
0
LINE
8
BLACK
6
CONTINUOUS
10
143.776
20
-61.568
11
149.776
21
-61.568
0
LINE
8
BLACK
6
CONTINUOUS
10
149.776
20
-61.568
11
149.776
21
-67.568
0
LINE
8
BLACK
6
CONTINUOUS
10
149.776
20
-67.568
11
143.776
21
-67.568
0
LINE
8
BLACK
6
CONTINUOUS
10
143.776
20
-67.568
11
143.776
21
-64.568
0
CIRCLE
8
BLACK
10
146.776
20
-64.568
40
2.01556
0
LINE
8
BLACK
6
CONTINUOUS
10
143.776
20
-52.122
11
143.776
21
-49.122
0
LINE
8
BLACK
6
CONTINUOUS
10
143.776
20
-49.122
11
149.776
21
-49.122
0
LINE
8
BLACK
6
CONTINUOUS
10
149.776
20
-49.122
11
149.776
21
-55.122
0
LINE
8
BLACK
6
CONTINUOUS
10
149.776
20
-55.122
11
143.776
21
-55.122
0
LINE
8
BLACK
6
CONTINUOUS
10
143.776
20
-55.122
11
143.776
21
-52.122
0
CIRCLE
8
BLACK
10
146.776
20
-52.122
40
2.01556
0
LINE
8
BLACK
6
CONTINUOUS
10
135.902
20
-89.206
11
135.902
21
-86.206
0
LINE
8
BLACK
6
CONTINUOUS
10
135.902
20
-86.206
11
141.902
21
-86.206
0
LINE
8
BLACK
6
CONTINUOUS
10
141.902
20
-86.206
11
141.902
21
-92.206
0
LINE
8
BLACK
6
CONTINUOUS
10
141.902
20
-92.206
11
135.902
21
-92.206
0
LINE
8
BLACK
6
CONTINUOUS
10
135.902
20
-92.206
11
135.902
21
-89.206
0
CIRCLE
8
BLACK
10
138.902
20
-89.206
40
2.01556
0
LINE
8
BLACK
6
CONTINUOUS
10
135.902
20
-76.91
11
135.902
21
-73.91
0
LINE
8
BLACK
6
CONTINUOUS
10
135.902
20
-73.91
11
141.902
21
-73.91
0
LINE
8
BLACK
6
CONTINUOUS
10
141.902
20
-73.91
11
141.902
21
-79.91
0
LINE
8
BLACK
6
CONTINUOUS
10
141.902
20
-79.91
11
135.902
21
-79.91
0
LINE
8
BLACK
6
CONTINUOUS
10
135.902
20
-79.91
11
135.902
21
-76.91
0
CIRCLE
8
BLACK
10
138.902
20
-76.91
40
2.01556
0
LINE
8
BLACK
6
CONTINUOUS
10
135.902
20
-64.568
11
135.902
21
-61.568
0
LINE
8
BLACK
6
CONTINUOUS
10
135.902
20
-61.568
11
141.902
21
-61.568
0
LINE
8
BLACK
6
CONTINUOUS
10
141.902
20
-61.568
11
141.902
21
-67.568
0
LINE
8
BLACK
6
CONTINUOUS
10
141.902
20
-67.568
11
135.902
21
-67.568
0
LINE
8
BLACK
6
CONTINUOUS
10
135.902
20
-67.568
11
135.902
21
-64.568
0
CIRCLE
8
BLACK
10
138.902
20
-64.568
40
2.01556
0
LINE
8
BLACK
6
CONTINUOUS
10
135.902
20
-52.122
11
135.902
21
-49.122
0
LINE
8
BLACK
6
CONTINUOUS
10
135.902
20
-49.122
11
141.902
21
-49.122
0
LINE
8
BLACK
6
CONTINUOUS
10
141.902
20
-49.122
11
141.902
21
-55.122
0
LINE
8
BLACK
6
CONTINUOUS
10
141.902
20
-55.122
11
135.902
21
-55.122
0
LINE
8
BLACK
6
CONTINUOUS
10
135.902
20
-55.122
11
135.902
21
-52.122
0
CIRCLE
8
BLACK
10
138.902
20
-52.122
40
2.01556
0
LINE
8
BLACK
6
CONTINUOUS
10
112.026
20
-89.206
11
112.026
21
-86.206
0
LINE
8
BLACK
6
CONTINUOUS
10
112.026
20
-86.206
11
118.026
21
-86.206
0
LINE
8
BLACK
6
CONTINUOUS
10
118.026
20
-86.206
11
118.026
21
-92.206
0
LINE
8
BLACK
6
CONTINUOUS
10
118.026
20
-92.206
11
112.026
21
-92.206
0
LINE
8
BLACK
6
CONTINUOUS
10
112.026
20
-92.206
11
112.026
21
-89.206
0
CIRCLE
8
BLACK
10
115.026
20
-89.206
40
2.01556
0
LINE
8
BLACK
6
CONTINUOUS
10
112.026
20
-76.91
11
112.026
21
-73.91
0
LINE
8
BLACK
6
CONTINUOUS
10
112.026
20
-73.91
11
118.026
21
-73.91
0
LINE
8
BLACK
6
CONTINUOUS
10
118.026
20
-73.91
11
118.026
21
-79.91
0
LINE
8
BLACK
6
CONTINUOUS
10
118.026
20
-79.91
11
112.026
21
-79.91
0
LINE
8
BLACK
6
CONTINUOUS
10
112.026
20
-79.91
11
112.026
21
-76.91
0
CIRCLE
8
BLACK
10
115.026
20
-76.91
40
2.01556
0
LINE
8
BLACK
6
CONTINUOUS
10
112.026
20
-52.122
11
112.026
21
-49.122
0
LINE
8
BLACK
6
CONTINUOUS
10
112.026
20
-49.122
11
118.026
21
-49.122
0
LINE
8
BLACK
6
CONTINUOUS
10
118.026
20
-49.122
11
118.026
21
-55.122
0
LINE
8
BLACK
6
CONTINUOUS
10
118.026
20
-55.122
11
112.026
21
-55.122
0
LINE
8
BLACK
6
CONTINUOUS
10
112.026
20
-55.122
11
112.026
21
-52.122
0
CIRCLE
8
BLACK
10
115.026
20
-52.122
40
2.01556
0
LINE
8
BLACK
6
CONTINUOUS
10
104.152
20
-89.206
11
104.152
21
-86.206
0
LINE
8
BLACK
6
CONTINUOUS
10
104.152
20
-86.206
11
110.152
21
-86.206
0
LINE
8
BLACK
6
CONTINUOUS
10
110.152
20
-86.206
11
110.152
21
-92.206
0
LINE
8
BLACK
6
CONTINUOUS
10
110.152
20
-92.206
11
104.152
21
-92.206
0
LINE
8
BLACK
6
CONTINUOUS
10
104.152
20
-92.206
11
104.152
21
-89.206
0
CIRCLE
8
BLACK
10
107.152
20
-89.206
40
2.01556
0
LINE
8
BLACK
6
CONTINUOUS
10
104.152
20
-76.91
11
104.152
21
-73.91
0
LINE
8
BLACK
6
CONTINUOUS
10
104.152
20
-73.91
11
110.152
21
-73.91
0
LINE
8
BLACK
6
CONTINUOUS
10
110.152
20
-73.91
11
110.152
21
-79.91
0
LINE
8
BLACK
6
CONTINUOUS
10
110.152
20
-79.91
11
104.152
21
-79.91
0
LINE
8
BLACK
6
CONTINUOUS
10
104.152
20
-79.91
11
104.152
21
-76.91
0
CIRCLE
8
BLACK
10
107.152
20
-76.91
40
2.01556
0
LINE
8
BLACK
6
CONTINUOUS
10
104.152
20
-52.122
11
104.152
21
-49.122
0
LINE
8
BLACK
6
CONTINUOUS
10
104.152
20
-49.122
11
110.152
21
-49.122
0
LINE
8
BLACK
6
CONTINUOUS
10
110.152
20
-49.122
11
110.152
21
-55.122
0
LINE
8
BLACK
6
CONTINUOUS
10
110.152
20
-55.122
11
104.152
21
-55.122
0
LINE
8
BLACK
6
CONTINUOUS
10
104.152
20
-55.122
11
104.152
21
-52.122
0
CIRCLE
8
BLACK
10
107.152
20
-52.122
40
2.01556
0
LINE
8
BLACK
6
CONTINUOUS
10
96.278
20
-89.206
11
96.278
21
-86.206
0
LINE
8
BLACK
6
CONTINUOUS
10
96.278
20
-86.206
11
102.278
21
-86.206
0
LINE
8
BLACK
6
CONTINUOUS
10
102.278
20
-86.206
11
102.278
21
-92.206
0
LINE
8
BLACK
6
CONTINUOUS
10
102.278
20
-92.206
11
96.278
21
-92.206
0
LINE
8
BLACK
6
CONTINUOUS
10
96.278
20
-92.206
11
96.278
21
-89.206
0
CIRCLE
8
BLACK
10
99.278
20
-89.206
40
2.01556
0
LINE
8
BLACK
6
CONTINUOUS
10
96.278
20
-76.91
11
96.278
21
-73.91
0
LINE
8
BLACK
6
CONTINUOUS
10
96.278
20
-73.91
11
102.278
21
-73.91
0
LINE
8
BLACK
6
CONTINUOUS
10
102.278
20
-73.91
11
102.278
21
-79.91
0
LINE
8
BLACK
6
CONTINUOUS
10
102.278
20
-79.91
11
96.278
21
-79.91
0
LINE
8
BLACK
6
CONTINUOUS
10
96.278
20
-79.91
11
96.278
21
-76.91
0
CIRCLE
8
BLACK
10
99.278
20
-76.91
40
2.01556
0
LINE
8
BLACK
6
CONTINUOUS
10
96.278
20
-64.568
11
96.278
21
-61.568
0
LINE
8
BLACK
6
CONTINUOUS
10
96.278
20
-61.568
11
102.278
21
-61.568
0
LINE
8
BLACK
6
CONTINUOUS
10
102.278
20
-61.568
11
102.278
21
-67.568
0
LINE
8
BLACK
6
CONTINUOUS
10
102.278
20
-67.568
11
96.278
21
-67.568
0
LINE
8
BLACK
6
CONTINUOUS
10
96.278
20
-67.568
11
96.278
21
-64.568
0
CIRCLE
8
BLACK
10
99.278
20
-64.568
40
2.01556
0
LINE
8
BLACK
6
CONTINUOUS
10
96.278
20
-52.122
11
96.278
21
-49.122
0
LINE
8
BLACK
6
CONTINUOUS
10
96.278
20
-49.122
11
102.278
21
-49.122
0
LINE
8
BLACK
6
CONTINUOUS
10
102.278
20
-49.122
11
102.278
21
-55.122
0
LINE
8
BLACK
6
CONTINUOUS
10
102.278
20
-55.122
11
96.278
21
-55.122
0
LINE
8
BLACK
6
CONTINUOUS
10
96.278
20
-55.122
11
96.278
21
-52.122
0
CIRCLE
8
BLACK
10
99.278
20
-52.122
40
2.01556
0
LINE
8
BLACK
6
CONTINUOUS
10
88.404
20
-76.91
11
88.404
21
-73.91
0
LINE
8
BLACK
6
CONTINUOUS
10
88.404
20
-73.91
11
94.404
21
-73.91
0
LINE
8
BLACK
6
CONTINUOUS
10
94.404
20
-73.91
11
94.404
21
-79.91
0
LINE
8
BLACK
6
CONTINUOUS
10
94.404
20
-79.91
11
88.404
21
-79.91
0
LINE
8
BLACK
6
CONTINUOUS
10
88.404
20
-79.91
11
88.404
21
-76.91
0
CIRCLE
8
BLACK
10
91.404
20
-76.91
40
2.01556
0
LINE
8
BLACK
6
CONTINUOUS
10
88.404
20
-64.568
11
88.404
21
-61.568
0
LINE
8
BLACK
6
CONTINUOUS
10
88.404
20
-61.568
11
94.404
21
-61.568
0
LINE
8
BLACK
6
CONTINUOUS
10
94.404
20
-61.568
11
94.404
21
-67.568
0
LINE
8
BLACK
6
CONTINUOUS
10
94.404
20
-67.568
11
88.404
21
-67.568
0
LINE
8
BLACK
6
CONTINUOUS
10
88.404
20
-67.568
11
88.404
21
-64.568
0
CIRCLE
8
BLACK
10
91.404
20
-64.568
40
2.01556
0
LINE
8
BLACK
6
CONTINUOUS
10
88.404
20
-52.122
11
88.404
21
-49.122
0
LINE
8
BLACK
6
CONTINUOUS
10
88.404
20
-49.122
11
94.404
21
-49.122
0
LINE
8
BLACK
6
CONTINUOUS
10
94.404
20
-49.122
11
94.404
21
-55.122
0
LINE
8
BLACK
6
CONTINUOUS
10
94.404
20
-55.122
11
88.404
21
-55.122
0
LINE
8
BLACK
6
CONTINUOUS
10
88.404
20
-55.122
11
88.404
21
-52.122
0
CIRCLE
8
BLACK
10
91.404
20
-52.122
40
2.01556
0
LINE
8
BLACK
6
CONTINUOUS
10
80.53
20
-76.91
11
80.53
21
-73.91
0
LINE
8
BLACK
6
CONTINUOUS
10
80.53
20
-73.91
11
86.53
21
-73.91
0
LINE
8
BLACK
6
CONTINUOUS
10
86.53
20
-73.91
11
86.53
21
-79.91
0
LINE
8
BLACK
6
CONTINUOUS
10
86.53
20
-79.91
11
80.53
21
-79.91
0
LINE
8
BLACK
6
CONTINUOUS
10
80.53
20
-79.91
11
80.53
21
-76.91
0
CIRCLE
8
BLACK
10
83.53
20
-76.91
40
2.01556
0
LINE
8
BLACK
6
CONTINUOUS
10
80.53
20
-64.568
11
80.53
21
-61.568
0
LINE
8
BLACK
6
CONTINUOUS
10
80.53
20
-61.568
11
86.53
21
-61.568
0
LINE
8
BLACK
6
CONTINUOUS
10
86.53
20
-61.568
11
86.53
21
-67.568
0
LINE
8
BLACK
6
CONTINUOUS
10
86.53
20
-67.568
11
80.53
21
-67.568
0
LINE
8
BLACK
6
CONTINUOUS
10
80.53
20
-67.568
11
80.53
21
-64.568
0
CIRCLE
8
BLACK
10
83.53
20
-64.568
40
2.01556
0
LINE
8
BLACK
6
CONTINUOUS
10
80.53
20
-52.122
11
80.53
21
-49.122
0
LINE
8
BLACK
6
CONTINUOUS
10
80.53
20
-49.122
11
86.53
21
-49.122
0
LINE
8
BLACK
6
CONTINUOUS
10
86.53
20
-49.122
11
86.53
21
-55.122
0
LINE
8
BLACK
6
CONTINUOUS
10
86.53
20
-55.122
11
80.53
21
-55.122
0
LINE
8
BLACK
6
CONTINUOUS
10
80.53
20
-55.122
11
80.53
21
-52.122
0
CIRCLE
8
BLACK
10
83.53
20
-52.122
40
2.01556
0
LINE
8
BLACK
6
CONTINUOUS
10
137.566
20
-38.12
11
137.566
21
-40.62
0
LINE
8
BLACK
6
CONTINUOUS
10
137.566
20
-40.62
11
143.866
21
-40.62
0
LINE
8
BLACK
6
CONTINUOUS
10
143.866
20
-40.62
11
143.866
21
-38.12
0
LINE
8
BLACK
6
CONTINUOUS
10
143.866
20
-38.12
11
137.566
21
-38.12
0
LINE
8
BLACK
6
CONTINUOUS
10
135.636
20
-39.37
11
137.566
21
-39.37
0
LINE
8
BLACK
6
CONTINUOUS
10
145.796
20
-39.37
11
143.866
21
-39.37
0
LINE
8
BLACK
6
CONTINUOUS
10
137.566
20
-41.676
11
137.566
21
-44.176
0
LINE
8
BLACK
6
CONTINUOUS
10
137.566
20
-44.176
11
143.866
21
-44.176
0
LINE
8
BLACK
6
CONTINUOUS
10
143.866
20
-44.176
11
143.866
21
-41.676
0
LINE
8
BLACK
6
CONTINUOUS
10
143.866
20
-41.676
11
137.566
21
-41.676
0
LINE
8
BLACK
6
CONTINUOUS
10
135.636
20
-42.926
11
137.566
21
-42.926
0
LINE
8
BLACK
6
CONTINUOUS
10
145.796
20
-42.926
11
143.866
21
-42.926
0
LINE
8
BLACK
6
CONTINUOUS
10
164.744
20
-41.93
11
164.744
21
-44.43
0
LINE
8
BLACK
6
CONTINUOUS
10
164.744
20
-44.43
11
171.044
21
-44.43
0
LINE
8
BLACK
6
CONTINUOUS
10
171.044
20
-44.43
11
171.044
21
-41.93
0
LINE
8
BLACK
6
CONTINUOUS
10
171.044
20
-41.93
11
164.744
21
-41.93
0
LINE
8
BLACK
6
CONTINUOUS
10
162.814
20
-43.18
11
164.744
21
-43.18
0
LINE
8
BLACK
6
CONTINUOUS
10
172.974
20
-43.18
11
171.044
21
-43.18
0
LINE
8
BLACK
6
CONTINUOUS
10
106.578
20
-41.93
11
106.578
21
-44.43
0
LINE
8
BLACK
6
CONTINUOUS
10
106.578
20
-44.43
11
112.878
21
-44.43
0
LINE
8
BLACK
6
CONTINUOUS
10
112.878
20
-44.43
11
112.878
21
-41.93
0
LINE
8
BLACK
6
CONTINUOUS
10
112.878
20
-41.93
11
106.578
21
-41.93
0
LINE
8
BLACK
6
CONTINUOUS
10
104.648
20
-43.18
11
106.578
21
-43.18
0
LINE
8
BLACK
6
CONTINUOUS
10
114.808
20
-43.18
11
112.878
21
-43.18
0
LINE
8
BLACK
6
CONTINUOUS
10
165.481
20
-38.879
11
165.481
21
-37.304
0
LINE
8
BLACK
6
CONTINUOUS
10
165.481
20
-37.304
11
170.561
21
-37.304
0
LINE
8
BLACK
6
CONTINUOUS
10
170.561
20
-37.304
11
170.561
21
-39.404
0
LINE
8
BLACK
6
CONTINUOUS
10
170.561
20
-39.404
11
166.006
21
-39.404
0
LINE
8
BLACK
6
CONTINUOUS
10
166.006
20
-39.404
11
165.481
21
-38.879
0
LINE
8
BLACK
6
CONTINUOUS
10
89.855
20
-43.211
11
91.755
21
-43.211
0
LINE
8
BLACK
6
CONTINUOUS
10
91.755
20
-43.211
11
91.755
21
-38.911
0
LINE
8
BLACK
6
CONTINUOUS
10
91.755
20
-38.911
11
89.855
21
-38.911
0
LINE
8
BLACK
6
CONTINUOUS
10
89.855
20
-38.911
11
89.855
21
-43.211
0
LINE
8
BLACK
6
CONTINUOUS
10
96.078
20
-43.338
11
97.978
21
-43.338
0
LINE
8
BLACK
6
CONTINUOUS
10
97.978
20
-43.338
11
97.978
21
-39.038
0
LINE
8
BLACK
6
CONTINUOUS
10
97.978
20
-39.038
11
96.078
21
-39.038
0
LINE
8
BLACK
6
CONTINUOUS
10
96.078
20
-39.038
11
96.078
21
-43.338
0
CIRCLE
8
BLACK
10
84.836
20
-41.414
40
2
0
LINE
8
BLACK
6
CONTINUOUS
10
83.9685
20
-43.1166
11
83.9685
21
-42.7166
0
LINE
8
BLACK
6
CONTINUOUS
10
83.7685
20
-42.9166
11
84.1685
21
-42.9166
0
LINE
8
BLACK
6
CONTINUOUS
10
130.54
20
-85.856
11
128.54
21
-85.856
0
LINE
8
BLACK
6
CONTINUOUS
10
128.54
20
-85.856
11
128.54
21
-88.856
0
LINE
8
BLACK
6
CONTINUOUS
10
128.54
20
-88.856
11
130.54
21
-88.856
0
LINE
8
BLACK
6
CONTINUOUS
10
130.54
20
-88.856
11
130.54
21
-85.856
0
LINE
8
BLACK
6
CONTINUOUS
10
125.714
20
-85.856
11
123.714
21
-85.856
0
LINE
8
BLACK
6
CONTINUOUS
10
123.714
20
-85.856
11
123.714
21
-88.856
0
LINE
8
BLACK
6
CONTINUOUS
10
123.714
20
-88.856
11
125.714
21
-88.856
0
LINE
8
BLACK
6
CONTINUOUS
10
125.714
20
-88.856
11
125.714
21
-85.856
  0
TEXT
  7
KICADB
  8
BLACK
  10
154.432
  11
154.432
  20
-45.396
  21
-45.396
  40
1
  41
1
  50
0
  51
0
  71
0
  72
1
  73
2
  1
D_Zener
  0
TEXT
  7
KICADB
  8
BLACK
  10
150.622
  11
150.622
  20
-41.026
  21
-41.026
  40
1
  41
1
  50
0
  51
0
  71
0
  72
1
  73
2
  1
K
  0
TEXT
  7
KICADB
  8
BLACK
  10
154.822
  11
154.822
  20
-42.926
  21
-42.926
  40
1
  41
1
  50
0
  51
0
  71
0
  72
1
  73
2
  1
D38
  0
TEXT
  7
KICADB
  8
BLACK
  10
154.432
  11
154.432
  20
-41.84
  21
-41.84
  40
1
  41
1
  50
0
  51
0
  71
0
  72
1
  73
2
  1
D_Zener
  0
TEXT
  7
KICADB
  8
BLACK
  10
150.622
  11
150.622
  20
-37.47
  21
-37.47
  40
1
  41
1
  50
0
  51
0
  71
0
  72
1
  73
2
  1
K
  0
TEXT
  7
KICADB
  8
BLACK
  10
154.822
  11
154.822
  20
-39.37
  21
-39.37
  40
1
  41
1
  50
0
  51
0
  71
0
  72
1
  73
2
  1
D37
  0
TEXT
  7
KICADB
  8
BLACK
  10
127
  11
127
  20
-78.784
  21
-78.784
  40
1
  41
1
  50
0
  51
0
  71
0
  72
1
  73
2
  1
ATmega328-PU
  0
TEXT
  7
KICADB
  8
BLACK
  10
127
  11
127
  20
-59.944
  21
-59.944
  40
1
  41
1
  50
0
  51
0
  71
0
  72
1
  73
2
  1
U1
  0
TEXT
  7
KICADB
  8
BLACK
  10
111.602
  11
111.602
  20
-64.068
  21
-64.068
  40
1
  41
1
  50
90
  51
0
  71
0
  72
1
  73
2
  1
SW_Push_Dual
  0
TEXT
  7
KICADB
  8
BLACK
  10
107.152
  11
107.152
  20
-64.568
  21
-64.568
  40
1
  41
1
  50
90
  51
0
  71
0
  72
1
  73
2
  1
SW14
  0
TEXT
  7
KICADB
  8
BLACK
  10
106.045
  11
106.045
  20
-39.116
  21
-39.116
  40
1
  41
1
  50
0
  51
0
  71
0
  72
1
  73
2
  1
J3
  0
TEXT
  7
KICADB
  8
BLACK
  10
113.157
  11
113.157
  20
-39.116
  21
-39.116
  40
1
  41
1
  50
0
  51
0
  71
0
  72
1
  73
2
  1
J2
  0
TEXT
  7
KICADB
  8
BLACK
  10
119.476
  11
119.476
  20
-64.068
  21
-64.068
  40
1
  41
1
  50
90
  51
0
  71
0
  72
1
  73
2
  1
SW_Push_Dual
  0
TEXT
  7
KICADB
  8
BLACK
  10
115.026
  11
115.026
  20
-64.568
  21
-64.568
  40
1
  41
1
  50
90
  51
0
  71
0
  72
1
  73
2
  1
SW15
  0
TEXT
  7
KICADB
  8
BLACK
  10
127
  11
127
  20
-105.206
  21
-105.206
  40
1
  41
1
  50
0
  51
0
  71
0
  72
1
  73
2
  1
5-way_switch
  0
TEXT
  7
KICADB
  8
BLACK
  10
127.09
  11
127.09
  20
-78.263
  21
-78.263
  40
1
  41
1
  50
0
  51
0
  71
0
  72
1
  73
2
  1
16mhz
  0
TEXT
  7
KICADB
  8
BLACK
  10
127.09
  11
127.09
  20
-81.788
  21
-81.788
  40
1
  41
1
  50
0
  51
0
  71
0
  72
1
  73
2
  1
Y1
  0
TEXT
  7
KICADB
  8
BLACK
  10
174.848
  11
174.848
  20
-76.41
  21
-76.41
  40
1
  41
1
  50
90
  51
0
  71
0
  72
1
  73
2
  1
SW_Push_Dual
  0
TEXT
  7
KICADB
  8
BLACK
  10
170.398
  11
170.398
  20
-76.91
  21
-76.91
  40
1
  41
1
  50
90
  51
0
  71
0
  72
1
  73
2
  1
SW30
  0
TEXT
  7
KICADB
  8
BLACK
  10
174.848
  11
174.848
  20
-64.068
  21
-64.068
  40
1
  41
1
  50
90
  51
0
  71
0
  72
1
  73
2
  1
SW_Push_Dual
  0
TEXT
  7
KICADB
  8
BLACK
  10
170.398
  11
170.398
  20
-64.568
  21
-64.568
  40
1
  41
1
  50
90
  51
0
  71
0
  72
1
  73
2
  1
SW20
  0
TEXT
  7
KICADB
  8
BLACK
  10
174.848
  11
174.848
  20
-51.622
  21
-51.622
  40
1
  41
1
  50
90
  51
0
  71
0
  72
1
  73
2
  1
SW_Push_Dual
  0
TEXT
  7
KICADB
  8
BLACK
  10
170.398
  11
170.398
  20
-52.122
  21
-52.122
  40
1
  41
1
  50
90
  51
0
  71
0
  72
1
  73
2
  1
SW10
  0
TEXT
  7
KICADB
  8
BLACK
  10
166.974
  11
166.974
  20
-76.41
  21
-76.41
  40
1
  41
1
  50
90
  51
0
  71
0
  72
1
  73
2
  1
SW_Push_Dual
  0
TEXT
  7
KICADB
  8
BLACK
  10
162.524
  11
162.524
  20
-76.91
  21
-76.91
  40
1
  41
1
  50
90
  51
0
  71
0
  72
1
  73
2
  1
SW29
  0
TEXT
  7
KICADB
  8
BLACK
  10
167.046
  11
167.046
  20
-64.068
  21
-64.068
  40
1
  41
1
  50
90
  51
0
  71
0
  72
1
  73
2
  1
SW_Push_Dual
  0
TEXT
  7
KICADB
  8
BLACK
  10
162.596
  11
162.596
  20
-64.568
  21
-64.568
  40
1
  41
1
  50
90
  51
0
  71
0
  72
1
  73
2
  1
SW19
  0
TEXT
  7
KICADB
  8
BLACK
  10
166.974
  11
166.974
  20
-51.622
  21
-51.622
  40
1
  41
1
  50
90
  51
0
  71
0
  72
1
  73
2
  1
SW_Push_Dual
  0
TEXT
  7
KICADB
  8
BLACK
  10
162.524
  11
162.524
  20
-52.122
  21
-52.122
  40
1
  41
1
  50
90
  51
0
  71
0
  72
1
  73
2
  1
SW9
  0
TEXT
  7
KICADB
  8
BLACK
  10
159.1
  11
159.1
  20
-88.706
  21
-88.706
  40
1
  41
1
  50
90
  51
0
  71
0
  72
1
  73
2
  1
SW_Push_Dual
  0
TEXT
  7
KICADB
  8
BLACK
  10
154.65
  11
154.65
  20
-89.206
  21
-89.206
  40
1
  41
1
  50
90
  51
0
  71
0
  72
1
  73
2
  1
SW36
  0
TEXT
  7
KICADB
  8
BLACK
  10
159.1
  11
159.1
  20
-76.41
  21
-76.41
  40
1
  41
1
  50
90
  51
0
  71
0
  72
1
  73
2
  1
SW_Push_Dual
  0
TEXT
  7
KICADB
  8
BLACK
  10
154.65
  11
154.65
  20
-76.91
  21
-76.91
  40
1
  41
1
  50
90
  51
0
  71
0
  72
1
  73
2
  1
SW28
  0
TEXT
  7
KICADB
  8
BLACK
  10
159.172
  11
159.172
  20
-64.068
  21
-64.068
  40
1
  41
1
  50
90
  51
0
  71
0
  72
1
  73
2
  1
SW_Push_Dual
  0
TEXT
  7
KICADB
  8
BLACK
  10
154.722
  11
154.722
  20
-64.568
  21
-64.568
  40
1
  41
1
  50
90
  51
0
  71
0
  72
1
  73
2
  1
SW18
  0
TEXT
  7
KICADB
  8
BLACK
  10
159.1
  11
159.1
  20
-51.622
  21
-51.622
  40
1
  41
1
  50
90
  51
0
  71
0
  72
1
  73
2
  1
SW_Push_Dual
  0
TEXT
  7
KICADB
  8
BLACK
  10
154.65
  11
154.65
  20
-52.122
  21
-52.122
  40
1
  41
1
  50
90
  51
0
  71
0
  72
1
  73
2
  1
SW8
  0
TEXT
  7
KICADB
  8
BLACK
  10
151.226
  11
151.226
  20
-88.706
  21
-88.706
  40
1
  41
1
  50
90
  51
0
  71
0
  72
1
  73
2
  1
SW_Push_Dual
  0
TEXT
  7
KICADB
  8
BLACK
  10
146.776
  11
146.776
  20
-89.206
  21
-89.206
  40
1
  41
1
  50
90
  51
0
  71
0
  72
1
  73
2
  1
SW35
  0
TEXT
  7
KICADB
  8
BLACK
  10
151.226
  11
151.226
  20
-76.41
  21
-76.41
  40
1
  41
1
  50
90
  51
0
  71
0
  72
1
  73
2
  1
SW_Push_Dual
  0
TEXT
  7
KICADB
  8
BLACK
  10
146.776
  11
146.776
  20
-76.91
  21
-76.91
  40
1
  41
1
  50
90
  51
0
  71
0
  72
1
  73
2
  1
SW27
  0
TEXT
  7
KICADB
  8
BLACK
  10
151.226
  11
151.226
  20
-64.068
  21
-64.068
  40
1
  41
1
  50
90
  51
0
  71
0
  72
1
  73
2
  1
SW_Push_Dual
  0
TEXT
  7
KICADB
  8
BLACK
  10
146.776
  11
146.776
  20
-64.568
  21
-64.568
  40
1
  41
1
  50
90
  51
0
  71
0
  72
1
  73
2
  1
SW17
  0
TEXT
  7
KICADB
  8
BLACK
  10
151.226
  11
151.226
  20
-51.622
  21
-51.622
  40
1
  41
1
  50
90
  51
0
  71
0
  72
1
  73
2
  1
SW_Push_Dual
  0
TEXT
  7
KICADB
  8
BLACK
  10
146.776
  11
146.776
  20
-52.122
  21
-52.122
  40
1
  41
1
  50
90
  51
0
  71
0
  72
1
  73
2
  1
SW7
  0
TEXT
  7
KICADB
  8
BLACK
  10
143.352
  11
143.352
  20
-88.706
  21
-88.706
  40
1
  41
1
  50
90
  51
0
  71
0
  72
1
  73
2
  1
SW_Push_Dual
  0
TEXT
  7
KICADB
  8
BLACK
  10
138.902
  11
138.902
  20
-89.206
  21
-89.206
  40
1
  41
1
  50
90
  51
0
  71
0
  72
1
  73
2
  1
SW34
  0
TEXT
  7
KICADB
  8
BLACK
  10
143.352
  11
143.352
  20
-76.41
  21
-76.41
  40
1
  41
1
  50
90
  51
0
  71
0
  72
1
  73
2
  1
SW_Push_Dual
  0
TEXT
  7
KICADB
  8
BLACK
  10
138.902
  11
138.902
  20
-76.91
  21
-76.91
  40
1
  41
1
  50
90
  51
0
  71
0
  72
1
  73
2
  1
SW26
  0
TEXT
  7
KICADB
  8
BLACK
  10
143.352
  11
143.352
  20
-64.068
  21
-64.068
  40
1
  41
1
  50
90
  51
0
  71
0
  72
1
  73
2
  1
SW_Push_Dual
  0
TEXT
  7
KICADB
  8
BLACK
  10
138.902
  11
138.902
  20
-64.568
  21
-64.568
  40
1
  41
1
  50
90
  51
0
  71
0
  72
1
  73
2
  1
SW16
  0
TEXT
  7
KICADB
  8
BLACK
  10
143.352
  11
143.352
  20
-51.622
  21
-51.622
  40
1
  41
1
  50
90
  51
0
  71
0
  72
1
  73
2
  1
SW_Push_Dual
  0
TEXT
  7
KICADB
  8
BLACK
  10
138.902
  11
138.902
  20
-52.122
  21
-52.122
  40
1
  41
1
  50
90
  51
0
  71
0
  72
1
  73
2
  1
SW6
  0
TEXT
  7
KICADB
  8
BLACK
  10
119.476
  11
119.476
  20
-88.706
  21
-88.706
  40
1
  41
1
  50
90
  51
0
  71
0
  72
1
  73
2
  1
SW_Push_Dual
  0
TEXT
  7
KICADB
  8
BLACK
  10
115.026
  11
115.026
  20
-89.206
  21
-89.206
  40
1
  41
1
  50
90
  51
0
  71
0
  72
1
  73
2
  1
SW33
  0
TEXT
  7
KICADB
  8
BLACK
  10
119.476
  11
119.476
  20
-76.41
  21
-76.41
  40
1
  41
1
  50
90
  51
0
  71
0
  72
1
  73
2
  1
SW_Push_Dual
  0
TEXT
  7
KICADB
  8
BLACK
  10
115.026
  11
115.026
  20
-76.91
  21
-76.91
  40
1
  41
1
  50
90
  51
0
  71
0
  72
1
  73
2
  1
SW25
  0
TEXT
  7
KICADB
  8
BLACK
  10
119.476
  11
119.476
  20
-51.622
  21
-51.622
  40
1
  41
1
  50
90
  51
0
  71
0
  72
1
  73
2
  1
SW_Push_Dual
  0
TEXT
  7
KICADB
  8
BLACK
  10
115.026
  11
115.026
  20
-52.122
  21
-52.122
  40
1
  41
1
  50
90
  51
0
  71
0
  72
1
  73
2
  1
SW5
  0
TEXT
  7
KICADB
  8
BLACK
  10
111.602
  11
111.602
  20
-88.706
  21
-88.706
  40
1
  41
1
  50
90
  51
0
  71
0
  72
1
  73
2
  1
SW_Push_Dual
  0
TEXT
  7
KICADB
  8
BLACK
  10
107.152
  11
107.152
  20
-89.206
  21
-89.206
  40
1
  41
1
  50
90
  51
0
  71
0
  72
1
  73
2
  1
SW32
  0
TEXT
  7
KICADB
  8
BLACK
  10
111.602
  11
111.602
  20
-76.41
  21
-76.41
  40
1
  41
1
  50
90
  51
0
  71
0
  72
1
  73
2
  1
SW_Push_Dual
  0
TEXT
  7
KICADB
  8
BLACK
  10
107.152
  11
107.152
  20
-76.91
  21
-76.91
  40
1
  41
1
  50
90
  51
0
  71
0
  72
1
  73
2
  1
SW24
  0
TEXT
  7
KICADB
  8
BLACK
  10
111.602
  11
111.602
  20
-51.622
  21
-51.622
  40
1
  41
1
  50
90
  51
0
  71
0
  72
1
  73
2
  1
SW_Push_Dual
  0
TEXT
  7
KICADB
  8
BLACK
  10
107.152
  11
107.152
  20
-52.122
  21
-52.122
  40
1
  41
1
  50
90
  51
0
  71
0
  72
1
  73
2
  1
SW4
  0
TEXT
  7
KICADB
  8
BLACK
  10
103.728
  11
103.728
  20
-88.706
  21
-88.706
  40
1
  41
1
  50
90
  51
0
  71
0
  72
1
  73
2
  1
SW_Push_Dual
  0
TEXT
  7
KICADB
  8
BLACK
  10
99.278
  11
99.278
  20
-89.206
  21
-89.206
  40
1
  41
1
  50
90
  51
0
  71
0
  72
1
  73
2
  1
SW31
  0
TEXT
  7
KICADB
  8
BLACK
  10
103.728
  11
103.728
  20
-76.41
  21
-76.41
  40
1
  41
1
  50
90
  51
0
  71
0
  72
1
  73
2
  1
SW_Push_Dual
  0
TEXT
  7
KICADB
  8
BLACK
  10
99.278
  11
99.278
  20
-76.91
  21
-76.91
  40
1
  41
1
  50
90
  51
0
  71
0
  72
1
  73
2
  1
SW23
  0
TEXT
  7
KICADB
  8
BLACK
  10
103.728
  11
103.728
  20
-64.068
  21
-64.068
  40
1
  41
1
  50
90
  51
0
  71
0
  72
1
  73
2
  1
SW_Push_Dual
  0
TEXT
  7
KICADB
  8
BLACK
  10
99.278
  11
99.278
  20
-64.568
  21
-64.568
  40
1
  41
1
  50
90
  51
0
  71
0
  72
1
  73
2
  1
SW13
  0
TEXT
  7
KICADB
  8
BLACK
  10
103.728
  11
103.728
  20
-51.622
  21
-51.622
  40
1
  41
1
  50
90
  51
0
  71
0
  72
1
  73
2
  1
SW_Push_Dual
  0
TEXT
  7
KICADB
  8
BLACK
  10
99.278
  11
99.278
  20
-52.122
  21
-52.122
  40
1
  41
1
  50
90
  51
0
  71
0
  72
1
  73
2
  1
SW3
  0
TEXT
  7
KICADB
  8
BLACK
  10
95.854
  11
95.854
  20
-76.41
  21
-76.41
  40
1
  41
1
  50
90
  51
0
  71
0
  72
1
  73
2
  1
SW_Push_Dual
  0
TEXT
  7
KICADB
  8
BLACK
  10
91.404
  11
91.404
  20
-76.91
  21
-76.91
  40
1
  41
1
  50
90
  51
0
  71
0
  72
1
  73
2
  1
SW22
  0
TEXT
  7
KICADB
  8
BLACK
  10
95.854
  11
95.854
  20
-64.068
  21
-64.068
  40
1
  41
1
  50
90
  51
0
  71
0
  72
1
  73
2
  1
SW_Push_Dual
  0
TEXT
  7
KICADB
  8
BLACK
  10
91.404
  11
91.404
  20
-64.568
  21
-64.568
  40
1
  41
1
  50
90
  51
0
  71
0
  72
1
  73
2
  1
SW12
  0
TEXT
  7
KICADB
  8
BLACK
  10
95.854
  11
95.854
  20
-51.622
  21
-51.622
  40
1
  41
1
  50
90
  51
0
  71
0
  72
1
  73
2
  1
SW_Push_Dual
  0
TEXT
  7
KICADB
  8
BLACK
  10
91.404
  11
91.404
  20
-52.122
  21
-52.122
  40
1
  41
1
  50
90
  51
0
  71
0
  72
1
  73
2
  1
SW2
  0
TEXT
  7
KICADB
  8
BLACK
  10
87.98
  11
87.98
  20
-76.41
  21
-76.41
  40
1
  41
1
  50
90
  51
0
  71
0
  72
1
  73
2
  1
SW_Push_Dual
  0
TEXT
  7
KICADB
  8
BLACK
  10
83.53
  11
83.53
  20
-76.91
  21
-76.91
  40
1
  41
1
  50
90
  51
0
  71
0
  72
1
  73
2
  1
SW21
  0
TEXT
  7
KICADB
  8
BLACK
  10
87.98
  11
87.98
  20
-64.068
  21
-64.068
  40
1
  41
1
  50
90
  51
0
  71
0
  72
1
  73
2
  1
SW_Push_Dual
  0
TEXT
  7
KICADB
  8
BLACK
  10
83.53
  11
83.53
  20
-64.568
  21
-64.568
  40
1
  41
1
  50
90
  51
0
  71
0
  72
1
  73
2
  1
SW11
  0
TEXT
  7
KICADB
  8
BLACK
  10
87.98
  11
87.98
  20
-51.622
  21
-51.622
  40
1
  41
1
  50
90
  51
0
  71
0
  72
1
  73
2
  1
SW_Push_Dual
  0
TEXT
  7
KICADB
  8
BLACK
  10
83.53
  11
83.53
  20
-52.122
  21
-52.122
  40
1
  41
1
  50
90
  51
0
  71
0
  72
1
  73
2
  1
SW1
  0
TEXT
  7
KICADB
  8
BLACK
  10
140.716
  11
140.716
  20
-41.74
  21
-41.74
  40
1
  41
1
  50
0
  51
0
  71
0
  72
1
  73
2
  1
75R
  0
TEXT
  7
KICADB
  8
BLACK
  10
140.716
  11
140.716
  20
-39.37
  21
-39.37
  40
1
  41
1
  50
0
  51
0
  71
0
  72
1
  73
2
  1
R4
  0
TEXT
  7
KICADB
  8
BLACK
  10
140.716
  11
140.716
  20
-45.296
  21
-45.296
  40
1
  41
1
  50
0
  51
0
  71
0
  72
1
  73
2
  1
75R
  0
TEXT
  7
KICADB
  8
BLACK
  10
140.716
  11
140.716
  20
-42.926
  21
-42.926
  40
1
  41
1
  50
0
  51
0
  71
0
  72
1
  73
2
  1
R3
  0
TEXT
  7
KICADB
  8
BLACK
  10
167.894
  11
167.894
  20
-45.55
  21
-45.55
  40
1
  41
1
  50
0
  51
0
  71
0
  72
1
  73
2
  1
1.5k
  0
TEXT
  7
KICADB
  8
BLACK
  10
167.894
  11
167.894
  20
-43.18
  21
-43.18
  40
1
  41
1
  50
0
  51
0
  71
0
  72
1
  73
2
  1
R2
  0
TEXT
  7
KICADB
  8
BLACK
  10
109.728
  11
109.728
  20
-45.55
  21
-45.55
  40
1
  41
1
  50
0
  51
0
  71
0
  72
1
  73
2
  1
10k
  0
TEXT
  7
KICADB
  8
BLACK
  10
109.728
  11
109.728
  20
-43.18
  21
-43.18
  40
1
  41
1
  50
0
  51
0
  71
0
  72
1
  73
2
  1
R1
  0
TEXT
  7
KICADB
  8
BLACK
  10
167.894
  11
167.894
  20
-35.814
  21
-35.814
  40
1
  41
1
  50
0
  51
0
  71
0
  72
1
  73
2
  1
USB_Connector
  0
TEXT
  7
KICADB
  8
BLACK
  10
168.021
  11
168.021
  20
-38.354
  21
-38.354
  40
1
  41
1
  50
0
  51
0
  71
0
  72
1
  73
2
  1
J1
  0
TEXT
  7
KICADB
  8
BLACK
  10
93.005
  11
93.005
  20
-41.061
  21
-41.061
  40
1
  41
1
  50
90
  51
0
  71
0
  72
1
  73
2
  1
100n
  0
TEXT
  7
KICADB
  8
BLACK
  10
90.805
  11
90.805
  20
-41.061
  21
-41.061
  40
0.86
  41
1
  50
90
  51
0
  71
0
  72
1
  73
2
  1
C5
  0
TEXT
  7
KICADB
  8
BLACK
  10
99.228
  11
99.228
  20
-41.188
  21
-41.188
  40
1
  41
1
  50
90
  51
0
  71
0
  72
1
  73
2
  1
100n
  0
TEXT
  7
KICADB
  8
BLACK
  10
97.028
  11
97.028
  20
-41.188
  21
-41.188
  40
0.86
  41
1
  50
90
  51
0
  71
0
  72
1
  73
2
  1
C4
  0
TEXT
  7
KICADB
  8
BLACK
  10
88.086
  11
88.086
  20
-41.414
  21
-41.414
  40
1
  41
1
  50
90
  51
0
  71
0
  72
1
  73
2
  1
4.7u
  0
TEXT
  7
KICADB
  8
BLACK
  10
84.836
  11
84.836
  20
-41.414
  21
-41.414
  40
0.8
  41
1
  50
0
  51
0
  71
0
  72
1
  73
2
  1
C3
  0
TEXT
  7
KICADB
  8
BLACK
  10
127.29
  11
127.29
  20
-87.356
  21
-87.356
  40
1
  41
1
  50
90
  51
0
  71
0
  72
1
  73
2
  1
22p
  0
TEXT
  7
KICADB
  8
BLACK
  10
129.54
  11
129.54
  20
-87.356
  21
-87.356
  40
0.6
  41
1
  50
90
  51
0
  71
0
  72
1
  73
2
  1
C2
  0
TEXT
  7
KICADB
  8
BLACK
  10
122.464
  11
122.464
  20
-87.356
  21
-87.356
  40
1
  41
1
  50
90
  51
0
  71
0
  72
1
  73
2
  1
22p
  0
TEXT
  7
KICADB
  8
BLACK
  10
124.714
  11
124.714
  20
-87.356
  21
-87.356
  40
0.6
  41
1
  50
90
  51
0
  71
0
  72
1
  73
2
  1
C1
  0
ENDSEC
  0
EOF
