  0
SECTION
  2
HEADER
  9
$ANGBASE
  50
0.0
  9
$ANGDIR
  70
1
  9
$MEASUREMENT
  70
1
  0
ENDSEC
  0
SECTION
  2
TABLES
  0
TABLE
  2
LTYPE
  70
4
  0
LTYPE
  5
40F
  2
CONTINUOUS
  70
0
  3
Solid line
  72
65
  73
0
  40
0.0
  0
LTYPE
  5
410
  2
DASHDOT
 70
0
  3
Dash Dot ____ _ ____ _
 72
65
 73
4
 40
2.0
 49
1.25
 49
-0.25
 49
0.25
 49
-0.25
  0
LTYPE
  5
411
  2
DASHED
 70
0
  3
Dashed __ __ __ __ __
 72
65
 73
2
 40
0.75
 49
0.5
 49
-0.25
  0
LTYPE
  5
43B
  2
DOTTED
 70
0
  3
Dotted .  .  .  .
 72
65
 73
2
 40
0.2
 49
0.0
 49
-0.2
  0
ENDTAB
  0
TABLE
  2
STYLE
  70
4
  0
STYLE
  2
KICAD
  70
0
  40
0
  41
1
  42
1
  50
0
  71
0
  3
isocp.shx
  0
STYLE
  2
KICADB
  70
0
  40
0
  41
1
  42
1
  50
0
  71
0
  3
isocp.shx
  0
STYLE
  2
KICADI
  70
0
  40
0
  41
1
  42
1
  50
15
  71
0
  3
isocp.shx
  0
STYLE
  2
KICADBI
  70
0
  40
0
  41
1
  42
1
  50
15
  71
0
  3
isocp.shx
  0
ENDTAB
  0
TABLE
  2
LAYER
  70
1
  0
LAYER
  2
BLACK
  70
0
  62
7
  6
CONTINUOUS
  0
ENDTAB
  0
ENDSEC
  0
SECTION
  2
ENTITIES
0
LINE
8
BLACK
6
CONTINUOUS
10
74.422
20
-109.22
11
74.422
21
-36.576
0
LINE
8
BLACK
6
CONTINUOUS
10
178.054
20
-110.49
11
75.692
21
-110.49
0
LINE
8
BLACK
6
CONTINUOUS
10
179.324
20
-36.576
11
179.324
21
-109.22
0
LINE
8
BLACK
6
CONTINUOUS
10
75.692
20
-35.306
11
178.054
21
-35.306
0
ARC
8
BLACK
10
178.054
20
-109.22
40
1.27
50
-90
51
-0
0
ARC
8
BLACK
10
75.692
20
-109.22
40
1.27
50
180
51
270
0
ARC
8
BLACK
10
75.692
20
-36.576
40
1.27
50
90
51
180
0
ARC
8
BLACK
10
178.054
20
-36.576
40
1.27
50
-0
51
90
0
CIRCLE
8
BLACK
10
78.232
20
-106.68
40
2.45
0
CIRCLE
8
BLACK
10
175.514
20
-39.116
40
2.45
0
CIRCLE
8
BLACK
10
175.514
20
-106.68
40
2.45
0
CIRCLE
8
BLACK
10
78.232
20
-39.116
40
2.45
0
LINE
8
BLACK
6
CONTINUOUS
10
122.09
20
-41.884
11
122.09
21
-77.984
0
LINE
8
BLACK
6
CONTINUOUS
10
122.09
20
-77.984
11
131.89
21
-77.984
0
LINE
8
BLACK
6
CONTINUOUS
10
131.89
20
-77.984
11
131.89
21
-41.884
0
LINE
8
BLACK
6
CONTINUOUS
10
131.89
20
-41.884
11
122.09
21
-41.884
0
LINE
8
BLACK
6
CONTINUOUS
10
110.902
20
-60.068
11
110.902
21
-59.818
0
LINE
8
BLACK
6
CONTINUOUS
10
110.902
20
-59.818
11
110.652
21
-59.818
0
LINE
8
BLACK
6
CONTINUOUS
10
103.402
20
-60.068
11
103.402
21
-59.818
0
LINE
8
BLACK
6
CONTINUOUS
10
103.402
20
-59.818
11
103.652
21
-59.818
0
LINE
8
BLACK
6
CONTINUOUS
10
103.652
20
-69.318
11
103.402
21
-69.318
0
LINE
8
BLACK
6
CONTINUOUS
10
103.402
20
-69.318
11
103.402
21
-69.068
0
LINE
8
BLACK
6
CONTINUOUS
10
110.652
20
-69.318
11
110.902
21
-69.318
0
LINE
8
BLACK
6
CONTINUOUS
10
110.902
20
-69.318
11
110.902
21
-69.068
0
LINE
8
BLACK
6
CONTINUOUS
10
103.402
20
-69.068
11
103.402
21
-60.068
0
LINE
8
BLACK
6
CONTINUOUS
10
110.652
20
-69.318
11
103.652
21
-69.318
0
LINE
8
BLACK
6
CONTINUOUS
10
110.902
20
-60.068
11
110.902
21
-69.068
0
LINE
8
BLACK
6
CONTINUOUS
10
103.652
20
-59.818
11
110.652
21
-59.818
0
LINE
8
BLACK
6
CONTINUOUS
10
107.83
20
-40.666
11
107.83
21
-37.566
0
LINE
8
BLACK
6
CONTINUOUS
10
104.23
20
-40.666
11
107.83
21
-40.666
0
LINE
8
BLACK
6
CONTINUOUS
10
104.23
20
-37.566
11
104.23
21
-40.666
0
LINE
8
BLACK
6
CONTINUOUS
10
107.83
20
-37.566
11
104.23
21
-37.566
0
LINE
8
BLACK
6
CONTINUOUS
10
114.942
20
-40.666
11
114.942
21
-37.566
0
LINE
8
BLACK
6
CONTINUOUS
10
111.342
20
-40.666
11
114.942
21
-40.666
0
LINE
8
BLACK
6
CONTINUOUS
10
111.342
20
-37.566
11
111.342
21
-40.666
0
LINE
8
BLACK
6
CONTINUOUS
10
114.942
20
-37.566
11
111.342
21
-37.566
0
LINE
8
BLACK
6
CONTINUOUS
10
118.776
20
-60.068
11
118.776
21
-59.818
0
LINE
8
BLACK
6
CONTINUOUS
10
118.776
20
-59.818
11
118.526
21
-59.818
0
LINE
8
BLACK
6
CONTINUOUS
10
111.276
20
-60.068
11
111.276
21
-59.818
0
LINE
8
BLACK
6
CONTINUOUS
10
111.276
20
-59.818
11
111.526
21
-59.818
0
LINE
8
BLACK
6
CONTINUOUS
10
111.526
20
-69.318
11
111.276
21
-69.318
0
LINE
8
BLACK
6
CONTINUOUS
10
111.276
20
-69.318
11
111.276
21
-69.068
0
LINE
8
BLACK
6
CONTINUOUS
10
118.526
20
-69.318
11
118.776
21
-69.318
0
LINE
8
BLACK
6
CONTINUOUS
10
118.776
20
-69.318
11
118.776
21
-69.068
0
LINE
8
BLACK
6
CONTINUOUS
10
111.276
20
-69.068
11
111.276
21
-60.068
0
LINE
8
BLACK
6
CONTINUOUS
10
118.526
20
-69.318
11
111.526
21
-69.318
0
LINE
8
BLACK
6
CONTINUOUS
10
118.776
20
-60.068
11
118.776
21
-69.068
0
LINE
8
BLACK
6
CONTINUOUS
10
111.526
20
-59.818
11
118.526
21
-59.818
0
LINE
8
BLACK
6
CONTINUOUS
10
133.04
20
-84.588
11
133.04
21
-78.988
0
LINE
8
BLACK
6
CONTINUOUS
10
133.04
20
-78.988
11
121.14
21
-78.988
0
LINE
8
BLACK
6
CONTINUOUS
10
121.14
20
-78.988
11
121.14
21
-84.588
0
LINE
8
BLACK
6
CONTINUOUS
10
121.14
20
-84.588
11
133.04
21
-84.588
0
LINE
8
BLACK
6
CONTINUOUS
10
174.148
20
-72.41
11
174.148
21
-72.16
0
LINE
8
BLACK
6
CONTINUOUS
10
174.148
20
-72.16
11
173.898
21
-72.16
0
LINE
8
BLACK
6
CONTINUOUS
10
166.648
20
-72.41
11
166.648
21
-72.16
0
LINE
8
BLACK
6
CONTINUOUS
10
166.648
20
-72.16
11
166.898
21
-72.16
0
LINE
8
BLACK
6
CONTINUOUS
10
166.898
20
-81.66
11
166.648
21
-81.66
0
LINE
8
BLACK
6
CONTINUOUS
10
166.648
20
-81.66
11
166.648
21
-81.41
0
LINE
8
BLACK
6
CONTINUOUS
10
173.898
20
-81.66
11
174.148
21
-81.66
0
LINE
8
BLACK
6
CONTINUOUS
10
174.148
20
-81.66
11
174.148
21
-81.41
0
LINE
8
BLACK
6
CONTINUOUS
10
166.648
20
-81.41
11
166.648
21
-72.41
0
LINE
8
BLACK
6
CONTINUOUS
10
173.898
20
-81.66
11
166.898
21
-81.66
0
LINE
8
BLACK
6
CONTINUOUS
10
174.148
20
-72.41
11
174.148
21
-81.41
0
LINE
8
BLACK
6
CONTINUOUS
10
166.898
20
-72.16
11
173.898
21
-72.16
0
LINE
8
BLACK
6
CONTINUOUS
10
174.148
20
-60.068
11
174.148
21
-59.818
0
LINE
8
BLACK
6
CONTINUOUS
10
174.148
20
-59.818
11
173.898
21
-59.818
0
LINE
8
BLACK
6
CONTINUOUS
10
166.648
20
-60.068
11
166.648
21
-59.818
0
LINE
8
BLACK
6
CONTINUOUS
10
166.648
20
-59.818
11
166.898
21
-59.818
0
LINE
8
BLACK
6
CONTINUOUS
10
166.898
20
-69.318
11
166.648
21
-69.318
0
LINE
8
BLACK
6
CONTINUOUS
10
166.648
20
-69.318
11
166.648
21
-69.068
0
LINE
8
BLACK
6
CONTINUOUS
10
173.898
20
-69.318
11
174.148
21
-69.318
0
LINE
8
BLACK
6
CONTINUOUS
10
174.148
20
-69.318
11
174.148
21
-69.068
0
LINE
8
BLACK
6
CONTINUOUS
10
166.648
20
-69.068
11
166.648
21
-60.068
0
LINE
8
BLACK
6
CONTINUOUS
10
173.898
20
-69.318
11
166.898
21
-69.318
0
LINE
8
BLACK
6
CONTINUOUS
10
174.148
20
-60.068
11
174.148
21
-69.068
0
LINE
8
BLACK
6
CONTINUOUS
10
166.898
20
-59.818
11
173.898
21
-59.818
0
LINE
8
BLACK
6
CONTINUOUS
10
174.148
20
-47.622
11
174.148
21
-47.372
0
LINE
8
BLACK
6
CONTINUOUS
10
174.148
20
-47.372
11
173.898
21
-47.372
0
LINE
8
BLACK
6
CONTINUOUS
10
166.648
20
-47.622
11
166.648
21
-47.372
0
LINE
8
BLACK
6
CONTINUOUS
10
166.648
20
-47.372
11
166.898
21
-47.372
0
LINE
8
BLACK
6
CONTINUOUS
10
166.898
20
-56.872
11
166.648
21
-56.872
0
LINE
8
BLACK
6
CONTINUOUS
10
166.648
20
-56.872
11
166.648
21
-56.622
0
LINE
8
BLACK
6
CONTINUOUS
10
173.898
20
-56.872
11
174.148
21
-56.872
0
LINE
8
BLACK
6
CONTINUOUS
10
174.148
20
-56.872
11
174.148
21
-56.622
0
LINE
8
BLACK
6
CONTINUOUS
10
166.648
20
-56.622
11
166.648
21
-47.622
0
LINE
8
BLACK
6
CONTINUOUS
10
173.898
20
-56.872
11
166.898
21
-56.872
0
LINE
8
BLACK
6
CONTINUOUS
10
174.148
20
-47.622
11
174.148
21
-56.622
0
LINE
8
BLACK
6
CONTINUOUS
10
166.898
20
-47.372
11
173.898
21
-47.372
0
LINE
8
BLACK
6
CONTINUOUS
10
166.274
20
-72.41
11
166.274
21
-72.16
0
LINE
8
BLACK
6
CONTINUOUS
10
166.274
20
-72.16
11
166.024
21
-72.16
0
LINE
8
BLACK
6
CONTINUOUS
10
158.774
20
-72.41
11
158.774
21
-72.16
0
LINE
8
BLACK
6
CONTINUOUS
10
158.774
20
-72.16
11
159.024
21
-72.16
0
LINE
8
BLACK
6
CONTINUOUS
10
159.024
20
-81.66
11
158.774
21
-81.66
0
LINE
8
BLACK
6
CONTINUOUS
10
158.774
20
-81.66
11
158.774
21
-81.41
0
LINE
8
BLACK
6
CONTINUOUS
10
166.024
20
-81.66
11
166.274
21
-81.66
0
LINE
8
BLACK
6
CONTINUOUS
10
166.274
20
-81.66
11
166.274
21
-81.41
0
LINE
8
BLACK
6
CONTINUOUS
10
158.774
20
-81.41
11
158.774
21
-72.41
0
LINE
8
BLACK
6
CONTINUOUS
10
166.024
20
-81.66
11
159.024
21
-81.66
0
LINE
8
BLACK
6
CONTINUOUS
10
166.274
20
-72.41
11
166.274
21
-81.41
0
LINE
8
BLACK
6
CONTINUOUS
10
159.024
20
-72.16
11
166.024
21
-72.16
0
LINE
8
BLACK
6
CONTINUOUS
10
166.346
20
-60.068
11
166.346
21
-59.818
0
LINE
8
BLACK
6
CONTINUOUS
10
166.346
20
-59.818
11
166.096
21
-59.818
0
LINE
8
BLACK
6
CONTINUOUS
10
158.846
20
-60.068
11
158.846
21
-59.818
0
LINE
8
BLACK
6
CONTINUOUS
10
158.846
20
-59.818
11
159.096
21
-59.818
0
LINE
8
BLACK
6
CONTINUOUS
10
159.096
20
-69.318
11
158.846
21
-69.318
0
LINE
8
BLACK
6
CONTINUOUS
10
158.846
20
-69.318
11
158.846
21
-69.068
0
LINE
8
BLACK
6
CONTINUOUS
10
166.096
20
-69.318
11
166.346
21
-69.318
0
LINE
8
BLACK
6
CONTINUOUS
10
166.346
20
-69.318
11
166.346
21
-69.068
0
LINE
8
BLACK
6
CONTINUOUS
10
158.846
20
-69.068
11
158.846
21
-60.068
0
LINE
8
BLACK
6
CONTINUOUS
10
166.096
20
-69.318
11
159.096
21
-69.318
0
LINE
8
BLACK
6
CONTINUOUS
10
166.346
20
-60.068
11
166.346
21
-69.068
0
LINE
8
BLACK
6
CONTINUOUS
10
159.096
20
-59.818
11
166.096
21
-59.818
0
LINE
8
BLACK
6
CONTINUOUS
10
166.274
20
-47.622
11
166.274
21
-47.372
0
LINE
8
BLACK
6
CONTINUOUS
10
166.274
20
-47.372
11
166.024
21
-47.372
0
LINE
8
BLACK
6
CONTINUOUS
10
158.774
20
-47.622
11
158.774
21
-47.372
0
LINE
8
BLACK
6
CONTINUOUS
10
158.774
20
-47.372
11
159.024
21
-47.372
0
LINE
8
BLACK
6
CONTINUOUS
10
159.024
20
-56.872
11
158.774
21
-56.872
0
LINE
8
BLACK
6
CONTINUOUS
10
158.774
20
-56.872
11
158.774
21
-56.622
0
LINE
8
BLACK
6
CONTINUOUS
10
166.024
20
-56.872
11
166.274
21
-56.872
0
LINE
8
BLACK
6
CONTINUOUS
10
166.274
20
-56.872
11
166.274
21
-56.622
0
LINE
8
BLACK
6
CONTINUOUS
10
158.774
20
-56.622
11
158.774
21
-47.622
0
LINE
8
BLACK
6
CONTINUOUS
10
166.024
20
-56.872
11
159.024
21
-56.872
0
LINE
8
BLACK
6
CONTINUOUS
10
166.274
20
-47.622
11
166.274
21
-56.622
0
LINE
8
BLACK
6
CONTINUOUS
10
159.024
20
-47.372
11
166.024
21
-47.372
0
LINE
8
BLACK
6
CONTINUOUS
10
158.4
20
-84.706
11
158.4
21
-84.456
0
LINE
8
BLACK
6
CONTINUOUS
10
158.4
20
-84.456
11
158.15
21
-84.456
0
LINE
8
BLACK
6
CONTINUOUS
10
150.9
20
-84.706
11
150.9
21
-84.456
0
LINE
8
BLACK
6
CONTINUOUS
10
150.9
20
-84.456
11
151.15
21
-84.456
0
LINE
8
BLACK
6
CONTINUOUS
10
151.15
20
-93.956
11
150.9
21
-93.956
0
LINE
8
BLACK
6
CONTINUOUS
10
150.9
20
-93.956
11
150.9
21
-93.706
0
LINE
8
BLACK
6
CONTINUOUS
10
158.15
20
-93.956
11
158.4
21
-93.956
0
LINE
8
BLACK
6
CONTINUOUS
10
158.4
20
-93.956
11
158.4
21
-93.706
0
LINE
8
BLACK
6
CONTINUOUS
10
150.9
20
-93.706
11
150.9
21
-84.706
0
LINE
8
BLACK
6
CONTINUOUS
10
158.15
20
-93.956
11
151.15
21
-93.956
0
LINE
8
BLACK
6
CONTINUOUS
10
158.4
20
-84.706
11
158.4
21
-93.706
0
LINE
8
BLACK
6
CONTINUOUS
10
151.15
20
-84.456
11
158.15
21
-84.456
0
LINE
8
BLACK
6
CONTINUOUS
10
158.4
20
-72.41
11
158.4
21
-72.16
0
LINE
8
BLACK
6
CONTINUOUS
10
158.4
20
-72.16
11
158.15
21
-72.16
0
LINE
8
BLACK
6
CONTINUOUS
10
150.9
20
-72.41
11
150.9
21
-72.16
0
LINE
8
BLACK
6
CONTINUOUS
10
150.9
20
-72.16
11
151.15
21
-72.16
0
LINE
8
BLACK
6
CONTINUOUS
10
151.15
20
-81.66
11
150.9
21
-81.66
0
LINE
8
BLACK
6
CONTINUOUS
10
150.9
20
-81.66
11
150.9
21
-81.41
0
LINE
8
BLACK
6
CONTINUOUS
10
158.15
20
-81.66
11
158.4
21
-81.66
0
LINE
8
BLACK
6
CONTINUOUS
10
158.4
20
-81.66
11
158.4
21
-81.41
0
LINE
8
BLACK
6
CONTINUOUS
10
150.9
20
-81.41
11
150.9
21
-72.41
0
LINE
8
BLACK
6
CONTINUOUS
10
158.15
20
-81.66
11
151.15
21
-81.66
0
LINE
8
BLACK
6
CONTINUOUS
10
158.4
20
-72.41
11
158.4
21
-81.41
0
LINE
8
BLACK
6
CONTINUOUS
10
151.15
20
-72.16
11
158.15
21
-72.16
0
LINE
8
BLACK
6
CONTINUOUS
10
158.472
20
-60.068
11
158.472
21
-59.818
0
LINE
8
BLACK
6
CONTINUOUS
10
158.472
20
-59.818
11
158.222
21
-59.818
0
LINE
8
BLACK
6
CONTINUOUS
10
150.972
20
-60.068
11
150.972
21
-59.818
0
LINE
8
BLACK
6
CONTINUOUS
10
150.972
20
-59.818
11
151.222
21
-59.818
0
LINE
8
BLACK
6
CONTINUOUS
10
151.222
20
-69.318
11
150.972
21
-69.318
0
LINE
8
BLACK
6
CONTINUOUS
10
150.972
20
-69.318
11
150.972
21
-69.068
0
LINE
8
BLACK
6
CONTINUOUS
10
158.222
20
-69.318
11
158.472
21
-69.318
0
LINE
8
BLACK
6
CONTINUOUS
10
158.472
20
-69.318
11
158.472
21
-69.068
0
LINE
8
BLACK
6
CONTINUOUS
10
150.972
20
-69.068
11
150.972
21
-60.068
0
LINE
8
BLACK
6
CONTINUOUS
10
158.222
20
-69.318
11
151.222
21
-69.318
0
LINE
8
BLACK
6
CONTINUOUS
10
158.472
20
-60.068
11
158.472
21
-69.068
0
LINE
8
BLACK
6
CONTINUOUS
10
151.222
20
-59.818
11
158.222
21
-59.818
0
LINE
8
BLACK
6
CONTINUOUS
10
158.4
20
-47.622
11
158.4
21
-47.372
0
LINE
8
BLACK
6
CONTINUOUS
10
158.4
20
-47.372
11
158.15
21
-47.372
0
LINE
8
BLACK
6
CONTINUOUS
10
150.9
20
-47.622
11
150.9
21
-47.372
0
LINE
8
BLACK
6
CONTINUOUS
10
150.9
20
-47.372
11
151.15
21
-47.372
0
LINE
8
BLACK
6
CONTINUOUS
10
151.15
20
-56.872
11
150.9
21
-56.872
0
LINE
8
BLACK
6
CONTINUOUS
10
150.9
20
-56.872
11
150.9
21
-56.622
0
LINE
8
BLACK
6
CONTINUOUS
10
158.15
20
-56.872
11
158.4
21
-56.872
0
LINE
8
BLACK
6
CONTINUOUS
10
158.4
20
-56.872
11
158.4
21
-56.622
0
LINE
8
BLACK
6
CONTINUOUS
10
150.9
20
-56.622
11
150.9
21
-47.622
0
LINE
8
BLACK
6
CONTINUOUS
10
158.15
20
-56.872
11
151.15
21
-56.872
0
LINE
8
BLACK
6
CONTINUOUS
10
158.4
20
-47.622
11
158.4
21
-56.622
0
LINE
8
BLACK
6
CONTINUOUS
10
151.15
20
-47.372
11
158.15
21
-47.372
0
LINE
8
BLACK
6
CONTINUOUS
10
150.526
20
-84.706
11
150.526
21
-84.456
0
LINE
8
BLACK
6
CONTINUOUS
10
150.526
20
-84.456
11
150.276
21
-84.456
0
LINE
8
BLACK
6
CONTINUOUS
10
143.026
20
-84.706
11
143.026
21
-84.456
0
LINE
8
BLACK
6
CONTINUOUS
10
143.026
20
-84.456
11
143.276
21
-84.456
0
LINE
8
BLACK
6
CONTINUOUS
10
143.276
20
-93.956
11
143.026
21
-93.956
0
LINE
8
BLACK
6
CONTINUOUS
10
143.026
20
-93.956
11
143.026
21
-93.706
0
LINE
8
BLACK
6
CONTINUOUS
10
150.276
20
-93.956
11
150.526
21
-93.956
0
LINE
8
BLACK
6
CONTINUOUS
10
150.526
20
-93.956
11
150.526
21
-93.706
0
LINE
8
BLACK
6
CONTINUOUS
10
143.026
20
-93.706
11
143.026
21
-84.706
0
LINE
8
BLACK
6
CONTINUOUS
10
150.276
20
-93.956
11
143.276
21
-93.956
0
LINE
8
BLACK
6
CONTINUOUS
10
150.526
20
-84.706
11
150.526
21
-93.706
0
LINE
8
BLACK
6
CONTINUOUS
10
143.276
20
-84.456
11
150.276
21
-84.456
0
LINE
8
BLACK
6
CONTINUOUS
10
150.526
20
-72.41
11
150.526
21
-72.16
0
LINE
8
BLACK
6
CONTINUOUS
10
150.526
20
-72.16
11
150.276
21
-72.16
0
LINE
8
BLACK
6
CONTINUOUS
10
143.026
20
-72.41
11
143.026
21
-72.16
0
LINE
8
BLACK
6
CONTINUOUS
10
143.026
20
-72.16
11
143.276
21
-72.16
0
LINE
8
BLACK
6
CONTINUOUS
10
143.276
20
-81.66
11
143.026
21
-81.66
0
LINE
8
BLACK
6
CONTINUOUS
10
143.026
20
-81.66
11
143.026
21
-81.41
0
LINE
8
BLACK
6
CONTINUOUS
10
150.276
20
-81.66
11
150.526
21
-81.66
0
LINE
8
BLACK
6
CONTINUOUS
10
150.526
20
-81.66
11
150.526
21
-81.41
0
LINE
8
BLACK
6
CONTINUOUS
10
143.026
20
-81.41
11
143.026
21
-72.41
0
LINE
8
BLACK
6
CONTINUOUS
10
150.276
20
-81.66
11
143.276
21
-81.66
0
LINE
8
BLACK
6
CONTINUOUS
10
150.526
20
-72.41
11
150.526
21
-81.41
0
LINE
8
BLACK
6
CONTINUOUS
10
143.276
20
-72.16
11
150.276
21
-72.16
0
LINE
8
BLACK
6
CONTINUOUS
10
150.526
20
-60.068
11
150.526
21
-59.818
0
LINE
8
BLACK
6
CONTINUOUS
10
150.526
20
-59.818
11
150.276
21
-59.818
0
LINE
8
BLACK
6
CONTINUOUS
10
143.026
20
-60.068
11
143.026
21
-59.818
0
LINE
8
BLACK
6
CONTINUOUS
10
143.026
20
-59.818
11
143.276
21
-59.818
0
LINE
8
BLACK
6
CONTINUOUS
10
143.276
20
-69.318
11
143.026
21
-69.318
0
LINE
8
BLACK
6
CONTINUOUS
10
143.026
20
-69.318
11
143.026
21
-69.068
0
LINE
8
BLACK
6
CONTINUOUS
10
150.276
20
-69.318
11
150.526
21
-69.318
0
LINE
8
BLACK
6
CONTINUOUS
10
150.526
20
-69.318
11
150.526
21
-69.068
0
LINE
8
BLACK
6
CONTINUOUS
10
143.026
20
-69.068
11
143.026
21
-60.068
0
LINE
8
BLACK
6
CONTINUOUS
10
150.276
20
-69.318
11
143.276
21
-69.318
0
LINE
8
BLACK
6
CONTINUOUS
10
150.526
20
-60.068
11
150.526
21
-69.068
0
LINE
8
BLACK
6
CONTINUOUS
10
143.276
20
-59.818
11
150.276
21
-59.818
0
LINE
8
BLACK
6
CONTINUOUS
10
150.526
20
-47.622
11
150.526
21
-47.372
0
LINE
8
BLACK
6
CONTINUOUS
10
150.526
20
-47.372
11
150.276
21
-47.372
0
LINE
8
BLACK
6
CONTINUOUS
10
143.026
20
-47.622
11
143.026
21
-47.372
0
LINE
8
BLACK
6
CONTINUOUS
10
143.026
20
-47.372
11
143.276
21
-47.372
0
LINE
8
BLACK
6
CONTINUOUS
10
143.276
20
-56.872
11
143.026
21
-56.872
0
LINE
8
BLACK
6
CONTINUOUS
10
143.026
20
-56.872
11
143.026
21
-56.622
0
LINE
8
BLACK
6
CONTINUOUS
10
150.276
20
-56.872
11
150.526
21
-56.872
0
LINE
8
BLACK
6
CONTINUOUS
10
150.526
20
-56.872
11
150.526
21
-56.622
0
LINE
8
BLACK
6
CONTINUOUS
10
143.026
20
-56.622
11
143.026
21
-47.622
0
LINE
8
BLACK
6
CONTINUOUS
10
150.276
20
-56.872
11
143.276
21
-56.872
0
LINE
8
BLACK
6
CONTINUOUS
10
150.526
20
-47.622
11
150.526
21
-56.622
0
LINE
8
BLACK
6
CONTINUOUS
10
143.276
20
-47.372
11
150.276
21
-47.372
0
LINE
8
BLACK
6
CONTINUOUS
10
142.652
20
-84.706
11
142.652
21
-84.456
0
LINE
8
BLACK
6
CONTINUOUS
10
142.652
20
-84.456
11
142.402
21
-84.456
0
LINE
8
BLACK
6
CONTINUOUS
10
135.152
20
-84.706
11
135.152
21
-84.456
0
LINE
8
BLACK
6
CONTINUOUS
10
135.152
20
-84.456
11
135.402
21
-84.456
0
LINE
8
BLACK
6
CONTINUOUS
10
135.402
20
-93.956
11
135.152
21
-93.956
0
LINE
8
BLACK
6
CONTINUOUS
10
135.152
20
-93.956
11
135.152
21
-93.706
0
LINE
8
BLACK
6
CONTINUOUS
10
142.402
20
-93.956
11
142.652
21
-93.956
0
LINE
8
BLACK
6
CONTINUOUS
10
142.652
20
-93.956
11
142.652
21
-93.706
0
LINE
8
BLACK
6
CONTINUOUS
10
135.152
20
-93.706
11
135.152
21
-84.706
0
LINE
8
BLACK
6
CONTINUOUS
10
142.402
20
-93.956
11
135.402
21
-93.956
0
LINE
8
BLACK
6
CONTINUOUS
10
142.652
20
-84.706
11
142.652
21
-93.706
0
LINE
8
BLACK
6
CONTINUOUS
10
135.402
20
-84.456
11
142.402
21
-84.456
0
LINE
8
BLACK
6
CONTINUOUS
10
142.652
20
-72.41
11
142.652
21
-72.16
0
LINE
8
BLACK
6
CONTINUOUS
10
142.652
20
-72.16
11
142.402
21
-72.16
0
LINE
8
BLACK
6
CONTINUOUS
10
135.152
20
-72.41
11
135.152
21
-72.16
0
LINE
8
BLACK
6
CONTINUOUS
10
135.152
20
-72.16
11
135.402
21
-72.16
0
LINE
8
BLACK
6
CONTINUOUS
10
135.402
20
-81.66
11
135.152
21
-81.66
0
LINE
8
BLACK
6
CONTINUOUS
10
135.152
20
-81.66
11
135.152
21
-81.41
0
LINE
8
BLACK
6
CONTINUOUS
10
142.402
20
-81.66
11
142.652
21
-81.66
0
LINE
8
BLACK
6
CONTINUOUS
10
142.652
20
-81.66
11
142.652
21
-81.41
0
LINE
8
BLACK
6
CONTINUOUS
10
135.152
20
-81.41
11
135.152
21
-72.41
0
LINE
8
BLACK
6
CONTINUOUS
10
142.402
20
-81.66
11
135.402
21
-81.66
0
LINE
8
BLACK
6
CONTINUOUS
10
142.652
20
-72.41
11
142.652
21
-81.41
0
LINE
8
BLACK
6
CONTINUOUS
10
135.402
20
-72.16
11
142.402
21
-72.16
0
LINE
8
BLACK
6
CONTINUOUS
10
142.652
20
-60.068
11
142.652
21
-59.818
0
LINE
8
BLACK
6
CONTINUOUS
10
142.652
20
-59.818
11
142.402
21
-59.818
0
LINE
8
BLACK
6
CONTINUOUS
10
135.152
20
-60.068
11
135.152
21
-59.818
0
LINE
8
BLACK
6
CONTINUOUS
10
135.152
20
-59.818
11
135.402
21
-59.818
0
LINE
8
BLACK
6
CONTINUOUS
10
135.402
20
-69.318
11
135.152
21
-69.318
0
LINE
8
BLACK
6
CONTINUOUS
10
135.152
20
-69.318
11
135.152
21
-69.068
0
LINE
8
BLACK
6
CONTINUOUS
10
142.402
20
-69.318
11
142.652
21
-69.318
0
LINE
8
BLACK
6
CONTINUOUS
10
142.652
20
-69.318
11
142.652
21
-69.068
0
LINE
8
BLACK
6
CONTINUOUS
10
135.152
20
-69.068
11
135.152
21
-60.068
0
LINE
8
BLACK
6
CONTINUOUS
10
142.402
20
-69.318
11
135.402
21
-69.318
0
LINE
8
BLACK
6
CONTINUOUS
10
142.652
20
-60.068
11
142.652
21
-69.068
0
LINE
8
BLACK
6
CONTINUOUS
10
135.402
20
-59.818
11
142.402
21
-59.818
0
LINE
8
BLACK
6
CONTINUOUS
10
142.652
20
-47.622
11
142.652
21
-47.372
0
LINE
8
BLACK
6
CONTINUOUS
10
142.652
20
-47.372
11
142.402
21
-47.372
0
LINE
8
BLACK
6
CONTINUOUS
10
135.152
20
-47.622
11
135.152
21
-47.372
0
LINE
8
BLACK
6
CONTINUOUS
10
135.152
20
-47.372
11
135.402
21
-47.372
0
LINE
8
BLACK
6
CONTINUOUS
10
135.402
20
-56.872
11
135.152
21
-56.872
0
LINE
8
BLACK
6
CONTINUOUS
10
135.152
20
-56.872
11
135.152
21
-56.622
0
LINE
8
BLACK
6
CONTINUOUS
10
142.402
20
-56.872
11
142.652
21
-56.872
0
LINE
8
BLACK
6
CONTINUOUS
10
142.652
20
-56.872
11
142.652
21
-56.622
0
LINE
8
BLACK
6
CONTINUOUS
10
135.152
20
-56.622
11
135.152
21
-47.622
0
LINE
8
BLACK
6
CONTINUOUS
10
142.402
20
-56.872
11
135.402
21
-56.872
0
LINE
8
BLACK
6
CONTINUOUS
10
142.652
20
-47.622
11
142.652
21
-56.622
0
LINE
8
BLACK
6
CONTINUOUS
10
135.402
20
-47.372
11
142.402
21
-47.372
0
LINE
8
BLACK
6
CONTINUOUS
10
118.776
20
-84.706
11
118.776
21
-84.456
0
LINE
8
BLACK
6
CONTINUOUS
10
118.776
20
-84.456
11
118.526
21
-84.456
0
LINE
8
BLACK
6
CONTINUOUS
10
111.276
20
-84.706
11
111.276
21
-84.456
0
LINE
8
BLACK
6
CONTINUOUS
10
111.276
20
-84.456
11
111.526
21
-84.456
0
LINE
8
BLACK
6
CONTINUOUS
10
111.526
20
-93.956
11
111.276
21
-93.956
0
LINE
8
BLACK
6
CONTINUOUS
10
111.276
20
-93.956
11
111.276
21
-93.706
0
LINE
8
BLACK
6
CONTINUOUS
10
118.526
20
-93.956
11
118.776
21
-93.956
0
LINE
8
BLACK
6
CONTINUOUS
10
118.776
20
-93.956
11
118.776
21
-93.706
0
LINE
8
BLACK
6
CONTINUOUS
10
111.276
20
-93.706
11
111.276
21
-84.706
0
LINE
8
BLACK
6
CONTINUOUS
10
118.526
20
-93.956
11
111.526
21
-93.956
0
LINE
8
BLACK
6
CONTINUOUS
10
118.776
20
-84.706
11
118.776
21
-93.706
0
LINE
8
BLACK
6
CONTINUOUS
10
111.526
20
-84.456
11
118.526
21
-84.456
0
LINE
8
BLACK
6
CONTINUOUS
10
118.776
20
-72.41
11
118.776
21
-72.16
0
LINE
8
BLACK
6
CONTINUOUS
10
118.776
20
-72.16
11
118.526
21
-72.16
0
LINE
8
BLACK
6
CONTINUOUS
10
111.276
20
-72.41
11
111.276
21
-72.16
0
LINE
8
BLACK
6
CONTINUOUS
10
111.276
20
-72.16
11
111.526
21
-72.16
0
LINE
8
BLACK
6
CONTINUOUS
10
111.526
20
-81.66
11
111.276
21
-81.66
0
LINE
8
BLACK
6
CONTINUOUS
10
111.276
20
-81.66
11
111.276
21
-81.41
0
LINE
8
BLACK
6
CONTINUOUS
10
118.526
20
-81.66
11
118.776
21
-81.66
0
LINE
8
BLACK
6
CONTINUOUS
10
118.776
20
-81.66
11
118.776
21
-81.41
0
LINE
8
BLACK
6
CONTINUOUS
10
111.276
20
-81.41
11
111.276
21
-72.41
0
LINE
8
BLACK
6
CONTINUOUS
10
118.526
20
-81.66
11
111.526
21
-81.66
0
LINE
8
BLACK
6
CONTINUOUS
10
118.776
20
-72.41
11
118.776
21
-81.41
0
LINE
8
BLACK
6
CONTINUOUS
10
111.526
20
-72.16
11
118.526
21
-72.16
0
LINE
8
BLACK
6
CONTINUOUS
10
118.776
20
-47.622
11
118.776
21
-47.372
0
LINE
8
BLACK
6
CONTINUOUS
10
118.776
20
-47.372
11
118.526
21
-47.372
0
LINE
8
BLACK
6
CONTINUOUS
10
111.276
20
-47.622
11
111.276
21
-47.372
0
LINE
8
BLACK
6
CONTINUOUS
10
111.276
20
-47.372
11
111.526
21
-47.372
0
LINE
8
BLACK
6
CONTINUOUS
10
111.526
20
-56.872
11
111.276
21
-56.872
0
LINE
8
BLACK
6
CONTINUOUS
10
111.276
20
-56.872
11
111.276
21
-56.622
0
LINE
8
BLACK
6
CONTINUOUS
10
118.526
20
-56.872
11
118.776
21
-56.872
0
LINE
8
BLACK
6
CONTINUOUS
10
118.776
20
-56.872
11
118.776
21
-56.622
0
LINE
8
BLACK
6
CONTINUOUS
10
111.276
20
-56.622
11
111.276
21
-47.622
0
LINE
8
BLACK
6
CONTINUOUS
10
118.526
20
-56.872
11
111.526
21
-56.872
0
LINE
8
BLACK
6
CONTINUOUS
10
118.776
20
-47.622
11
118.776
21
-56.622
0
LINE
8
BLACK
6
CONTINUOUS
10
111.526
20
-47.372
11
118.526
21
-47.372
0
LINE
8
BLACK
6
CONTINUOUS
10
110.902
20
-84.706
11
110.902
21
-84.456
0
LINE
8
BLACK
6
CONTINUOUS
10
110.902
20
-84.456
11
110.652
21
-84.456
0
LINE
8
BLACK
6
CONTINUOUS
10
103.402
20
-84.706
11
103.402
21
-84.456
0
LINE
8
BLACK
6
CONTINUOUS
10
103.402
20
-84.456
11
103.652
21
-84.456
0
LINE
8
BLACK
6
CONTINUOUS
10
103.652
20
-93.956
11
103.402
21
-93.956
0
LINE
8
BLACK
6
CONTINUOUS
10
103.402
20
-93.956
11
103.402
21
-93.706
0
LINE
8
BLACK
6
CONTINUOUS
10
110.652
20
-93.956
11
110.902
21
-93.956
0
LINE
8
BLACK
6
CONTINUOUS
10
110.902
20
-93.956
11
110.902
21
-93.706
0
LINE
8
BLACK
6
CONTINUOUS
10
103.402
20
-93.706
11
103.402
21
-84.706
0
LINE
8
BLACK
6
CONTINUOUS
10
110.652
20
-93.956
11
103.652
21
-93.956
0
LINE
8
BLACK
6
CONTINUOUS
10
110.902
20
-84.706
11
110.902
21
-93.706
0
LINE
8
BLACK
6
CONTINUOUS
10
103.652
20
-84.456
11
110.652
21
-84.456
0
LINE
8
BLACK
6
CONTINUOUS
10
110.902
20
-72.41
11
110.902
21
-72.16
0
LINE
8
BLACK
6
CONTINUOUS
10
110.902
20
-72.16
11
110.652
21
-72.16
0
LINE
8
BLACK
6
CONTINUOUS
10
103.402
20
-72.41
11
103.402
21
-72.16
0
LINE
8
BLACK
6
CONTINUOUS
10
103.402
20
-72.16
11
103.652
21
-72.16
0
LINE
8
BLACK
6
CONTINUOUS
10
103.652
20
-81.66
11
103.402
21
-81.66
0
LINE
8
BLACK
6
CONTINUOUS
10
103.402
20
-81.66
11
103.402
21
-81.41
0
LINE
8
BLACK
6
CONTINUOUS
10
110.652
20
-81.66
11
110.902
21
-81.66
0
LINE
8
BLACK
6
CONTINUOUS
10
110.902
20
-81.66
11
110.902
21
-81.41
0
LINE
8
BLACK
6
CONTINUOUS
10
103.402
20
-81.41
11
103.402
21
-72.41
0
LINE
8
BLACK
6
CONTINUOUS
10
110.652
20
-81.66
11
103.652
21
-81.66
0
LINE
8
BLACK
6
CONTINUOUS
10
110.902
20
-72.41
11
110.902
21
-81.41
0
LINE
8
BLACK
6
CONTINUOUS
10
103.652
20
-72.16
11
110.652
21
-72.16
0
LINE
8
BLACK
6
CONTINUOUS
10
110.902
20
-47.622
11
110.902
21
-47.372
0
LINE
8
BLACK
6
CONTINUOUS
10
110.902
20
-47.372
11
110.652
21
-47.372
0
LINE
8
BLACK
6
CONTINUOUS
10
103.402
20
-47.622
11
103.402
21
-47.372
0
LINE
8
BLACK
6
CONTINUOUS
10
103.402
20
-47.372
11
103.652
21
-47.372
0
LINE
8
BLACK
6
CONTINUOUS
10
103.652
20
-56.872
11
103.402
21
-56.872
0
LINE
8
BLACK
6
CONTINUOUS
10
103.402
20
-56.872
11
103.402
21
-56.622
0
LINE
8
BLACK
6
CONTINUOUS
10
110.652
20
-56.872
11
110.902
21
-56.872
0
LINE
8
BLACK
6
CONTINUOUS
10
110.902
20
-56.872
11
110.902
21
-56.622
0
LINE
8
BLACK
6
CONTINUOUS
10
103.402
20
-56.622
11
103.402
21
-47.622
0
LINE
8
BLACK
6
CONTINUOUS
10
110.652
20
-56.872
11
103.652
21
-56.872
0
LINE
8
BLACK
6
CONTINUOUS
10
110.902
20
-47.622
11
110.902
21
-56.622
0
LINE
8
BLACK
6
CONTINUOUS
10
103.652
20
-47.372
11
110.652
21
-47.372
0
LINE
8
BLACK
6
CONTINUOUS
10
103.028
20
-84.706
11
103.028
21
-84.456
0
LINE
8
BLACK
6
CONTINUOUS
10
103.028
20
-84.456
11
102.778
21
-84.456
0
LINE
8
BLACK
6
CONTINUOUS
10
95.528
20
-84.706
11
95.528
21
-84.456
0
LINE
8
BLACK
6
CONTINUOUS
10
95.528
20
-84.456
11
95.778
21
-84.456
0
LINE
8
BLACK
6
CONTINUOUS
10
95.778
20
-93.956
11
95.528
21
-93.956
0
LINE
8
BLACK
6
CONTINUOUS
10
95.528
20
-93.956
11
95.528
21
-93.706
0
LINE
8
BLACK
6
CONTINUOUS
10
102.778
20
-93.956
11
103.028
21
-93.956
0
LINE
8
BLACK
6
CONTINUOUS
10
103.028
20
-93.956
11
103.028
21
-93.706
0
LINE
8
BLACK
6
CONTINUOUS
10
95.528
20
-93.706
11
95.528
21
-84.706
0
LINE
8
BLACK
6
CONTINUOUS
10
102.778
20
-93.956
11
95.778
21
-93.956
0
LINE
8
BLACK
6
CONTINUOUS
10
103.028
20
-84.706
11
103.028
21
-93.706
0
LINE
8
BLACK
6
CONTINUOUS
10
95.778
20
-84.456
11
102.778
21
-84.456
0
LINE
8
BLACK
6
CONTINUOUS
10
103.028
20
-72.41
11
103.028
21
-72.16
0
LINE
8
BLACK
6
CONTINUOUS
10
103.028
20
-72.16
11
102.778
21
-72.16
0
LINE
8
BLACK
6
CONTINUOUS
10
95.528
20
-72.41
11
95.528
21
-72.16
0
LINE
8
BLACK
6
CONTINUOUS
10
95.528
20
-72.16
11
95.778
21
-72.16
0
LINE
8
BLACK
6
CONTINUOUS
10
95.778
20
-81.66
11
95.528
21
-81.66
0
LINE
8
BLACK
6
CONTINUOUS
10
95.528
20
-81.66
11
95.528
21
-81.41
0
LINE
8
BLACK
6
CONTINUOUS
10
102.778
20
-81.66
11
103.028
21
-81.66
0
LINE
8
BLACK
6
CONTINUOUS
10
103.028
20
-81.66
11
103.028
21
-81.41
0
LINE
8
BLACK
6
CONTINUOUS
10
95.528
20
-81.41
11
95.528
21
-72.41
0
LINE
8
BLACK
6
CONTINUOUS
10
102.778
20
-81.66
11
95.778
21
-81.66
0
LINE
8
BLACK
6
CONTINUOUS
10
103.028
20
-72.41
11
103.028
21
-81.41
0
LINE
8
BLACK
6
CONTINUOUS
10
95.778
20
-72.16
11
102.778
21
-72.16
0
LINE
8
BLACK
6
CONTINUOUS
10
103.028
20
-60.068
11
103.028
21
-59.818
0
LINE
8
BLACK
6
CONTINUOUS
10
103.028
20
-59.818
11
102.778
21
-59.818
0
LINE
8
BLACK
6
CONTINUOUS
10
95.528
20
-60.068
11
95.528
21
-59.818
0
LINE
8
BLACK
6
CONTINUOUS
10
95.528
20
-59.818
11
95.778
21
-59.818
0
LINE
8
BLACK
6
CONTINUOUS
10
95.778
20
-69.318
11
95.528
21
-69.318
0
LINE
8
BLACK
6
CONTINUOUS
10
95.528
20
-69.318
11
95.528
21
-69.068
0
LINE
8
BLACK
6
CONTINUOUS
10
102.778
20
-69.318
11
103.028
21
-69.318
0
LINE
8
BLACK
6
CONTINUOUS
10
103.028
20
-69.318
11
103.028
21
-69.068
0
LINE
8
BLACK
6
CONTINUOUS
10
95.528
20
-69.068
11
95.528
21
-60.068
0
LINE
8
BLACK
6
CONTINUOUS
10
102.778
20
-69.318
11
95.778
21
-69.318
0
LINE
8
BLACK
6
CONTINUOUS
10
103.028
20
-60.068
11
103.028
21
-69.068
0
LINE
8
BLACK
6
CONTINUOUS
10
95.778
20
-59.818
11
102.778
21
-59.818
0
LINE
8
BLACK
6
CONTINUOUS
10
103.028
20
-47.622
11
103.028
21
-47.372
0
LINE
8
BLACK
6
CONTINUOUS
10
103.028
20
-47.372
11
102.778
21
-47.372
0
LINE
8
BLACK
6
CONTINUOUS
10
95.528
20
-47.622
11
95.528
21
-47.372
0
LINE
8
BLACK
6
CONTINUOUS
10
95.528
20
-47.372
11
95.778
21
-47.372
0
LINE
8
BLACK
6
CONTINUOUS
10
95.778
20
-56.872
11
95.528
21
-56.872
0
LINE
8
BLACK
6
CONTINUOUS
10
95.528
20
-56.872
11
95.528
21
-56.622
0
LINE
8
BLACK
6
CONTINUOUS
10
102.778
20
-56.872
11
103.028
21
-56.872
0
LINE
8
BLACK
6
CONTINUOUS
10
103.028
20
-56.872
11
103.028
21
-56.622
0
LINE
8
BLACK
6
CONTINUOUS
10
95.528
20
-56.622
11
95.528
21
-47.622
0
LINE
8
BLACK
6
CONTINUOUS
10
102.778
20
-56.872
11
95.778
21
-56.872
0
LINE
8
BLACK
6
CONTINUOUS
10
103.028
20
-47.622
11
103.028
21
-56.622
0
LINE
8
BLACK
6
CONTINUOUS
10
95.778
20
-47.372
11
102.778
21
-47.372
0
LINE
8
BLACK
6
CONTINUOUS
10
95.154
20
-72.41
11
95.154
21
-72.16
0
LINE
8
BLACK
6
CONTINUOUS
10
95.154
20
-72.16
11
94.904
21
-72.16
0
LINE
8
BLACK
6
CONTINUOUS
10
87.654
20
-72.41
11
87.654
21
-72.16
0
LINE
8
BLACK
6
CONTINUOUS
10
87.654
20
-72.16
11
87.904
21
-72.16
0
LINE
8
BLACK
6
CONTINUOUS
10
87.904
20
-81.66
11
87.654
21
-81.66
0
LINE
8
BLACK
6
CONTINUOUS
10
87.654
20
-81.66
11
87.654
21
-81.41
0
LINE
8
BLACK
6
CONTINUOUS
10
94.904
20
-81.66
11
95.154
21
-81.66
0
LINE
8
BLACK
6
CONTINUOUS
10
95.154
20
-81.66
11
95.154
21
-81.41
0
LINE
8
BLACK
6
CONTINUOUS
10
87.654
20
-81.41
11
87.654
21
-72.41
0
LINE
8
BLACK
6
CONTINUOUS
10
94.904
20
-81.66
11
87.904
21
-81.66
0
LINE
8
BLACK
6
CONTINUOUS
10
95.154
20
-72.41
11
95.154
21
-81.41
0
LINE
8
BLACK
6
CONTINUOUS
10
87.904
20
-72.16
11
94.904
21
-72.16
0
LINE
8
BLACK
6
CONTINUOUS
10
95.154
20
-60.068
11
95.154
21
-59.818
0
LINE
8
BLACK
6
CONTINUOUS
10
95.154
20
-59.818
11
94.904
21
-59.818
0
LINE
8
BLACK
6
CONTINUOUS
10
87.654
20
-60.068
11
87.654
21
-59.818
0
LINE
8
BLACK
6
CONTINUOUS
10
87.654
20
-59.818
11
87.904
21
-59.818
0
LINE
8
BLACK
6
CONTINUOUS
10
87.904
20
-69.318
11
87.654
21
-69.318
0
LINE
8
BLACK
6
CONTINUOUS
10
87.654
20
-69.318
11
87.654
21
-69.068
0
LINE
8
BLACK
6
CONTINUOUS
10
94.904
20
-69.318
11
95.154
21
-69.318
0
LINE
8
BLACK
6
CONTINUOUS
10
95.154
20
-69.318
11
95.154
21
-69.068
0
LINE
8
BLACK
6
CONTINUOUS
10
87.654
20
-69.068
11
87.654
21
-60.068
0
LINE
8
BLACK
6
CONTINUOUS
10
94.904
20
-69.318
11
87.904
21
-69.318
0
LINE
8
BLACK
6
CONTINUOUS
10
95.154
20
-60.068
11
95.154
21
-69.068
0
LINE
8
BLACK
6
CONTINUOUS
10
87.904
20
-59.818
11
94.904
21
-59.818
0
LINE
8
BLACK
6
CONTINUOUS
10
95.154
20
-47.622
11
95.154
21
-47.372
0
LINE
8
BLACK
6
CONTINUOUS
10
95.154
20
-47.372
11
94.904
21
-47.372
0
LINE
8
BLACK
6
CONTINUOUS
10
87.654
20
-47.622
11
87.654
21
-47.372
0
LINE
8
BLACK
6
CONTINUOUS
10
87.654
20
-47.372
11
87.904
21
-47.372
0
LINE
8
BLACK
6
CONTINUOUS
10
87.904
20
-56.872
11
87.654
21
-56.872
0
LINE
8
BLACK
6
CONTINUOUS
10
87.654
20
-56.872
11
87.654
21
-56.622
0
LINE
8
BLACK
6
CONTINUOUS
10
94.904
20
-56.872
11
95.154
21
-56.872
0
LINE
8
BLACK
6
CONTINUOUS
10
95.154
20
-56.872
11
95.154
21
-56.622
0
LINE
8
BLACK
6
CONTINUOUS
10
87.654
20
-56.622
11
87.654
21
-47.622
0
LINE
8
BLACK
6
CONTINUOUS
10
94.904
20
-56.872
11
87.904
21
-56.872
0
LINE
8
BLACK
6
CONTINUOUS
10
95.154
20
-47.622
11
95.154
21
-56.622
0
LINE
8
BLACK
6
CONTINUOUS
10
87.904
20
-47.372
11
94.904
21
-47.372
0
LINE
8
BLACK
6
CONTINUOUS
10
87.28
20
-72.41
11
87.28
21
-72.16
0
LINE
8
BLACK
6
CONTINUOUS
10
87.28
20
-72.16
11
87.03
21
-72.16
0
LINE
8
BLACK
6
CONTINUOUS
10
79.78
20
-72.41
11
79.78
21
-72.16
0
LINE
8
BLACK
6
CONTINUOUS
10
79.78
20
-72.16
11
80.03
21
-72.16
0
LINE
8
BLACK
6
CONTINUOUS
10
80.03
20
-81.66
11
79.78
21
-81.66
0
LINE
8
BLACK
6
CONTINUOUS
10
79.78
20
-81.66
11
79.78
21
-81.41
0
LINE
8
BLACK
6
CONTINUOUS
10
87.03
20
-81.66
11
87.28
21
-81.66
0
LINE
8
BLACK
6
CONTINUOUS
10
87.28
20
-81.66
11
87.28
21
-81.41
0
LINE
8
BLACK
6
CONTINUOUS
10
79.78
20
-81.41
11
79.78
21
-72.41
0
LINE
8
BLACK
6
CONTINUOUS
10
87.03
20
-81.66
11
80.03
21
-81.66
0
LINE
8
BLACK
6
CONTINUOUS
10
87.28
20
-72.41
11
87.28
21
-81.41
0
LINE
8
BLACK
6
CONTINUOUS
10
80.03
20
-72.16
11
87.03
21
-72.16
0
LINE
8
BLACK
6
CONTINUOUS
10
87.28
20
-60.068
11
87.28
21
-59.818
0
LINE
8
BLACK
6
CONTINUOUS
10
87.28
20
-59.818
11
87.03
21
-59.818
0
LINE
8
BLACK
6
CONTINUOUS
10
79.78
20
-60.068
11
79.78
21
-59.818
0
LINE
8
BLACK
6
CONTINUOUS
10
79.78
20
-59.818
11
80.03
21
-59.818
0
LINE
8
BLACK
6
CONTINUOUS
10
80.03
20
-69.318
11
79.78
21
-69.318
0
LINE
8
BLACK
6
CONTINUOUS
10
79.78
20
-69.318
11
79.78
21
-69.068
0
LINE
8
BLACK
6
CONTINUOUS
10
87.03
20
-69.318
11
87.28
21
-69.318
0
LINE
8
BLACK
6
CONTINUOUS
10
87.28
20
-69.318
11
87.28
21
-69.068
0
LINE
8
BLACK
6
CONTINUOUS
10
79.78
20
-69.068
11
79.78
21
-60.068
0
LINE
8
BLACK
6
CONTINUOUS
10
87.03
20
-69.318
11
80.03
21
-69.318
0
LINE
8
BLACK
6
CONTINUOUS
10
87.28
20
-60.068
11
87.28
21
-69.068
0
LINE
8
BLACK
6
CONTINUOUS
10
80.03
20
-59.818
11
87.03
21
-59.818
0
LINE
8
BLACK
6
CONTINUOUS
10
87.28
20
-47.622
11
87.28
21
-47.372
0
LINE
8
BLACK
6
CONTINUOUS
10
87.28
20
-47.372
11
87.03
21
-47.372
0
LINE
8
BLACK
6
CONTINUOUS
10
79.78
20
-47.622
11
79.78
21
-47.372
0
LINE
8
BLACK
6
CONTINUOUS
10
79.78
20
-47.372
11
80.03
21
-47.372
0
LINE
8
BLACK
6
CONTINUOUS
10
80.03
20
-56.872
11
79.78
21
-56.872
0
LINE
8
BLACK
6
CONTINUOUS
10
79.78
20
-56.872
11
79.78
21
-56.622
0
LINE
8
BLACK
6
CONTINUOUS
10
87.03
20
-56.872
11
87.28
21
-56.872
0
LINE
8
BLACK
6
CONTINUOUS
10
87.28
20
-56.872
11
87.28
21
-56.622
0
LINE
8
BLACK
6
CONTINUOUS
10
79.78
20
-56.622
11
79.78
21
-47.622
0
LINE
8
BLACK
6
CONTINUOUS
10
87.03
20
-56.872
11
80.03
21
-56.872
0
LINE
8
BLACK
6
CONTINUOUS
10
87.28
20
-47.622
11
87.28
21
-56.622
0
LINE
8
BLACK
6
CONTINUOUS
10
80.03
20
-47.372
11
87.03
21
-47.372
0
LINE
8
BLACK
6
CONTINUOUS
10
142.968
20
-41.68
11
142.968
21
-44.68
0
LINE
8
BLACK
6
CONTINUOUS
10
142.968
20
-44.68
11
155.228
21
-44.68
0
LINE
8
BLACK
6
CONTINUOUS
10
155.228
20
-44.68
11
155.228
21
-41.68
0
LINE
8
BLACK
6
CONTINUOUS
10
155.228
20
-41.68
11
142.968
21
-41.68
0
LINE
8
BLACK
6
CONTINUOUS
10
143.222
20
-37.87
11
143.222
21
-40.87
0
LINE
8
BLACK
6
CONTINUOUS
10
143.222
20
-40.87
11
155.482
21
-40.87
0
LINE
8
BLACK
6
CONTINUOUS
10
155.482
20
-40.87
11
155.482
21
-37.87
0
LINE
8
BLACK
6
CONTINUOUS
10
155.482
20
-37.87
11
143.222
21
-37.87
0
LINE
8
BLACK
6
CONTINUOUS
10
161.764
20
-41.68
11
161.764
21
-44.68
0
LINE
8
BLACK
6
CONTINUOUS
10
161.764
20
-44.68
11
174.024
21
-44.68
0
LINE
8
BLACK
6
CONTINUOUS
10
174.024
20
-44.68
11
174.024
21
-41.68
0
LINE
8
BLACK
6
CONTINUOUS
10
174.024
20
-41.68
11
161.764
21
-41.68
0
LINE
8
BLACK
6
CONTINUOUS
10
103.598
20
-41.68
11
103.598
21
-44.68
0
LINE
8
BLACK
6
CONTINUOUS
10
103.598
20
-44.68
11
115.858
21
-44.68
0
LINE
8
BLACK
6
CONTINUOUS
10
115.858
20
-44.68
11
115.858
21
-41.68
0
LINE
8
BLACK
6
CONTINUOUS
10
115.858
20
-41.68
11
103.598
21
-41.68
0
LINE
8
BLACK
6
CONTINUOUS
10
164.966
20
-39.904
11
171.066
21
-39.904
0
LINE
8
BLACK
6
CONTINUOUS
10
171.066
20
-39.904
11
171.066
21
-36.804
0
LINE
8
BLACK
6
CONTINUOUS
10
171.066
20
-36.804
11
164.966
21
-36.804
0
LINE
8
BLACK
6
CONTINUOUS
10
164.966
20
-36.804
11
164.966
21
-39.904
0
LINE
8
BLACK
6
CONTINUOUS
10
89.605
20
-44.611
11
92.005
21
-44.611
0
LINE
8
BLACK
6
CONTINUOUS
10
92.005
20
-44.611
11
92.005
21
-37.511
0
LINE
8
BLACK
6
CONTINUOUS
10
92.005
20
-37.511
11
89.605
21
-37.511
0
LINE
8
BLACK
6
CONTINUOUS
10
89.605
20
-37.511
11
89.605
21
-44.611
0
LINE
8
BLACK
6
CONTINUOUS
10
95.828
20
-44.738
11
98.228
21
-44.738
0
LINE
8
BLACK
6
CONTINUOUS
10
98.228
20
-44.738
11
98.228
21
-37.638
0
LINE
8
BLACK
6
CONTINUOUS
10
98.228
20
-37.638
11
95.828
21
-37.638
0
LINE
8
BLACK
6
CONTINUOUS
10
95.828
20
-37.638
11
95.828
21
-44.738
0
CIRCLE
8
BLACK
10
83.312
20
-41.414
40
2.25
0
LINE
8
BLACK
6
CONTINUOUS
10
130.79
20
-85.056
11
128.29
21
-85.056
0
LINE
8
BLACK
6
CONTINUOUS
10
128.29
20
-85.056
11
128.29
21
-89.656
0
LINE
8
BLACK
6
CONTINUOUS
10
128.29
20
-89.656
11
130.79
21
-89.656
0
LINE
8
BLACK
6
CONTINUOUS
10
130.79
20
-89.656
11
130.79
21
-85.056
0
LINE
8
BLACK
6
CONTINUOUS
10
125.964
20
-85.056
11
123.464
21
-85.056
0
LINE
8
BLACK
6
CONTINUOUS
10
123.464
20
-85.056
11
123.464
21
-89.656
0
LINE
8
BLACK
6
CONTINUOUS
10
123.464
20
-89.656
11
125.964
21
-89.656
0
LINE
8
BLACK
6
CONTINUOUS
10
125.964
20
-89.656
11
125.964
21
-85.056
  0
ENDSEC
  0
EOF
